<?xml version="1.0" encoding="UTF-8" standalone="no"?><svg xmlns="http://www.w3.org/2000/svg" xmlns:xlink="http://www.w3.org/1999/xlink" contentStyleType="text/css" height="883px" preserveAspectRatio="none" style="width:869px;height:883px;background:#FFFFFF;" version="1.1" viewBox="0 0 869 883" width="869px" zoomAndPan="magnify"><defs/><g><rect fill="none" height="26.4883" id="_title" style="stroke:none;stroke-width:1.0;" width="196" x="329.5" y="5"/><text fill="#000000" font-family="sans-serif" font-size="14" font-weight="bold" lengthAdjust="spacing" textLength="186" x="334.5" y="23.5352">DesignExtractor Overview</text><!--MD5=[73d33c0bbab16e3b8b85e5ca19da3a9e]
cluster DesignExtractor--><g id="cluster_DesignExtractor"><rect fill="none" height="833.16" rx="2.5" ry="2.5" style="stroke:#181818;stroke-width:1.0;" width="856" x="7" y="44.4883"/><text fill="#000000" font-family="sans-serif" font-size="14" font-weight="bold" lengthAdjust="spacing" textLength="114" x="378" y="60.0234">DesignExtractor</text></g><!--MD5=[5103497b2d7f2a270a12649344c4ec69]
cluster AbstractionExtractors--><g id="cluster_AbstractionExtractors"><path d="M228.5,631.2283 L384.5,631.2283 A3.75,3.75 0 0 1 387,633.7283 L394,653.7166 L828.5,653.7166 A2.5,2.5 0 0 1 831,656.2166 L831,843.1483 A2.5,2.5 0 0 1 828.5,845.6483 L228.5,845.6483 A2.5,2.5 0 0 1 226,843.1483 L226,633.7283 A2.5,2.5 0 0 1 228.5,631.2283 " fill="none" style="stroke:#000000;stroke-width:1.5;"/><line style="stroke:#000000;stroke-width:1.5;" x1="226" x2="394" y1="653.7166" y2="653.7166"/><text fill="#000000" font-family="sans-serif" font-size="14" font-weight="bold" lengthAdjust="spacing" textLength="155" x="230" y="646.7634">AbstractionExtractors</text></g><g id="elem_GMN3"><path d="M50.5,150.0683 L50.5,221.3105 L329.5,221.3105 L329.5,160.0683 L319.5,150.0683 L50.5,150.0683 " fill="#FEFFDD" style="stroke:#181818;stroke-width:0.5;"/><path d="M319.5,150.0683 L319.5,160.0683 L329.5,160.0683 L319.5,150.0683 " fill="#FEFFDD" style="stroke:#181818;stroke-width:1.0;"/><text fill="#000000" font-family="sans-serif" font-size="13" lengthAdjust="spacing" textLength="162" x="56.5" y="167.6366">Shorthand for types used:</text><text fill="#000000" font-family="sans-serif" font-size="13" lengthAdjust="spacing" textLength="258" x="56.5" y="182.9472">@ - Shared Pointer, str - String, b - Bool,</text><text fill="#000000" font-family="sans-serif" font-size="13" lengthAdjust="spacing" textLength="244" x="56.5" y="198.2577">strv - String View, v - vector, ∅ - void,</text><text fill="#000000" font-family="sans-serif" font-size="13" lengthAdjust="spacing" textLength="84" x="56.5" y="213.5683">u_set - u_set</text></g><!--MD5=[4662063a86870778f4a9865e456bfcb5]
class DesignExtractor--><g id="elem_DesignExtractor"><rect codeLine="11" fill="#F1F1F1" height="196.3945" id="DesignExtractor" rx="2.5" ry="2.5" style="stroke:#181818;stroke-width:0.5;" width="475" x="364.5" y="87.4883"/><ellipse cx="542.75" cy="103.4883" fill="#ADD1B2" rx="11" ry="11" style="stroke:#181818;stroke-width:1.0;"/><path d="M545.2231,109.6313 Q544.6421,109.9302 544.0029,110.0796 Q543.3638,110.229 542.6582,110.229 Q540.1514,110.229 538.8315,108.5771 Q537.5117,106.9253 537.5117,103.8042 Q537.5117,100.6748 538.8315,99.0229 Q540.1514,97.3711 542.6582,97.3711 Q543.3638,97.3711 544.0112,97.5205 Q544.6587,97.6699 545.2231,97.9688 L545.2231,100.6914 Q544.5923,100.1104 543.9988,99.8406 Q543.4053,99.5708 542.7744,99.5708 Q541.4297,99.5708 540.7449,100.6375 Q540.0601,101.7041 540.0601,103.8042 Q540.0601,105.896 540.7449,106.9626 Q541.4297,108.0293 542.7744,108.0293 Q543.4053,108.0293 543.9988,107.7595 Q544.5923,107.4897 545.2231,106.9087 Z " fill="#000000"/><text fill="#000000" font-family="sans-serif" font-size="14" lengthAdjust="spacing" textLength="110" x="563.25" y="108.7793">DesignExtractor</text><line style="stroke:#181818;stroke-width:0.5;" x1="365.5" x2="838.5" y1="119.4883" y2="119.4883"/><rect fill="none" height="6" style="stroke:#C82930;stroke-width:1.0;" width="6" x="372.5" y="130.2324"/><text fill="#000000" font-family="sans-serif" font-size="14" lengthAdjust="spacing" textLength="218" x="384.5" y="137.0234">@EntityExtractor entityExtractor</text><rect fill="none" height="6" style="stroke:#C82930;stroke-width:1.0;" width="6" x="372.5" y="146.7207"/><text fill="#000000" font-family="sans-serif" font-size="14" lengthAdjust="spacing" textLength="259" x="384.5" y="153.5117">@ModifiesExtractor modifiesExtractor</text><rect fill="none" height="6" style="stroke:#C82930;stroke-width:1.0;" width="6" x="372.5" y="163.209"/><text fill="#000000" font-family="sans-serif" font-size="14" lengthAdjust="spacing" textLength="205" x="384.5" y="170">@UsesExtractor usesExtractor</text><rect fill="none" height="6" style="stroke:#C82930;stroke-width:1.0;" width="6" x="372.5" y="179.6973"/><text fill="#000000" font-family="sans-serif" font-size="14" lengthAdjust="spacing" textLength="245" x="384.5" y="186.4883">@ParentsExtractor parentsExtractor</text><rect fill="none" height="6" style="stroke:#C82930;stroke-width:1.0;" width="6" x="372.5" y="196.1855"/><text fill="#000000" font-family="sans-serif" font-size="14" lengthAdjust="spacing" textLength="243" x="384.5" y="202.9766">@FollowsExtractor followsExtractor</text><rect fill="none" height="6" style="stroke:#C82930;stroke-width:1.0;" width="6" x="372.5" y="212.6738"/><text fill="#000000" font-family="sans-serif" font-size="14" lengthAdjust="spacing" textLength="205" x="384.5" y="219.4648">@CallsExtractor callsExtractor</text><rect fill="none" height="6" style="stroke:#C82930;stroke-width:1.0;" width="6" x="372.5" y="229.1621"/><text fill="#000000" font-family="sans-serif" font-size="14" lengthAdjust="spacing" textLength="205" x="384.5" y="235.9531">@NextExtractor nextExtractor</text><rect fill="none" height="6" style="stroke:#C82930;stroke-width:1.0;" width="6" x="372.5" y="245.6504"/><text fill="#000000" font-family="sans-serif" font-size="14" lengthAdjust="spacing" textLength="449" x="384.5" y="252.4414">@ProcedureLineNumberExtractor procedureLineNumberExtractor</text><line style="stroke:#181818;stroke-width:0.5;" x1="365.5" x2="838.5" y1="259.3945" y2="259.3945"/><ellipse cx="375.5" cy="273.1387" fill="#84BE84" rx="3" ry="3" style="stroke:#038048;stroke-width:1.0;"/><text fill="#000000" font-family="sans-serif" font-size="14" lengthAdjust="spacing" textLength="440" x="384.5" y="276.9297">void extractAndInsertAll(@ProcessedProgram, b useMultithread)</text></g><!--MD5=[20080be7d9e2470b3df5c67a700ed6c2]
class Extractor--><g id="elem_Extractor"><rect codeLine="23" fill="#F1F1F1" height="122.5742" id="Extractor" rx="2.5" ry="2.5" style="stroke:#181818;stroke-width:0.5;" width="268" x="462" y="413.7683"/><ellipse cx="560.25" cy="434.0788" fill="#A9DCDF" rx="11" ry="11" style="stroke:#181818;stroke-width:1.0;"/><path d="M560.1133,429.427 L558.9595,434.4988 L561.2754,434.4988 Z M558.6191,427.1858 L561.6157,427.1858 L564.9609,439.5788 L562.5122,439.5788 L561.7485,436.5158 L558.4697,436.5158 L557.7227,439.5788 L555.2739,439.5788 Z " fill="#000000"/><text fill="#000000" font-family="sans-serif" font-size="12" font-style="italic" lengthAdjust="spacing" textLength="39" x="592.75" y="430.3698">«Base»</text><text fill="#000000" font-family="sans-serif" font-size="14" font-style="italic" lengthAdjust="spacing" textLength="63" x="580.75" y="446.4363">Extractor</text><line style="stroke:#181818;stroke-width:0.5;" x1="463" x2="729" y1="454.3894" y2="454.3894"/><ellipse cx="473" cy="468.1335" fill="#84BE84" rx="3" ry="3" style="stroke:#038048;stroke-width:1.0;"/><text fill="#000000" font-family="sans-serif" font-size="14" lengthAdjust="spacing" textLength="231" x="482" y="471.9245">void extract(@ProcessedProgram)</text><ellipse cx="473" cy="484.6218" fill="#84BE84" rx="3" ry="3" style="stroke:#038048;stroke-width:1.0;"/><text fill="#000000" font-family="sans-serif" font-size="14" lengthAdjust="spacing" textLength="242" x="482" y="488.4128">void extract(@ProcessedProcedure)</text><ellipse cx="473" cy="501.1101" fill="#84BE84" rx="3" ry="3" style="stroke:#038048;stroke-width:1.0;"/><text fill="#000000" font-family="sans-serif" font-size="14" lengthAdjust="spacing" textLength="226" x="482" y="504.9011">void extract(@ProcessedStmtList)</text><line style="stroke:#181818;stroke-width:1.0;" x1="463" x2="729" y1="511.8542" y2="511.8542"/><text fill="#000000" font-family="sans-serif" font-size="14" lengthAdjust="spacing" textLength="221" x="468" y="529.3894">{abstract more extract methods}</text></g><!--MD5=[42d8b9eac8c399621d5ef2b55261e8f2]
class EntityExtractor--><g id="elem_EntityExtractor"><rect codeLine="30" fill="#F1F1F1" height="262.3477" id="EntityExtractor" rx="2.5" ry="2.5" style="stroke:#181818;stroke-width:0.5;" width="371" x="55.5" y="343.8783"/><ellipse cx="186.25" cy="359.8783" fill="#ADD1B2" rx="11" ry="11" style="stroke:#181818;stroke-width:1.0;"/><path d="M188.7231,366.0213 Q188.1421,366.3202 187.5029,366.4696 Q186.8638,366.619 186.1582,366.619 Q183.6514,366.619 182.3315,364.9671 Q181.0117,363.3153 181.0117,360.1942 Q181.0117,357.0648 182.3315,355.4129 Q183.6514,353.7611 186.1582,353.7611 Q186.8638,353.7611 187.5112,353.9105 Q188.1587,354.0599 188.7231,354.3588 L188.7231,357.0814 Q188.0923,356.5004 187.4988,356.2306 Q186.9053,355.9608 186.2744,355.9608 Q184.9297,355.9608 184.2449,357.0275 Q183.5601,358.0941 183.5601,360.1942 Q183.5601,362.286 184.2449,363.3526 Q184.9297,364.4193 186.2744,364.4193 Q186.9053,364.4193 187.4988,364.1495 Q188.0923,363.8797 188.7231,363.2987 Z " fill="#000000"/><text fill="#000000" font-family="sans-serif" font-size="14" lengthAdjust="spacing" textLength="101" x="206.75" y="365.1693">EntityExtractor</text><line style="stroke:#181818;stroke-width:0.5;" x1="56.5" x2="425.5" y1="375.8783" y2="375.8783"/><rect fill="none" height="6" style="stroke:#C82930;stroke-width:1.0;" width="6" x="63.5" y="386.6224"/><text fill="#000000" font-family="sans-serif" font-size="14" lengthAdjust="spacing" textLength="274" x="75.5" y="393.4134">procedureMap: @map&lt;str, u_set&lt;str&gt;&gt;</text><rect fill="none" height="6" style="stroke:#C82930;stroke-width:1.0;" width="6" x="63.5" y="403.1107"/><text fill="#000000" font-family="sans-serif" font-size="14" lengthAdjust="spacing" textLength="257" x="75.5" y="409.9017">variableMap: @map&lt;str, u_set&lt;str&gt;&gt;</text><rect fill="none" height="6" style="stroke:#C82930;stroke-width:1.0;" width="6" x="63.5" y="419.599"/><text fill="#000000" font-family="sans-serif" font-size="14" lengthAdjust="spacing" textLength="271" x="75.5" y="426.39">statementMap: @map&lt;str, u_set&lt;str&gt;&gt;</text><rect fill="none" height="6" style="stroke:#C82930;stroke-width:1.0;" width="6" x="63.5" y="436.0873"/><text fill="#000000" font-family="sans-serif" font-size="14" lengthAdjust="spacing" textLength="262" x="75.5" y="442.8783">constantMap: @map&lt;str, u_set&lt;str&gt;&gt;</text><rect fill="none" height="6" style="stroke:#C82930;stroke-width:1.0;" width="6" x="63.5" y="452.5755"/><text fill="#000000" font-family="sans-serif" font-size="14" lengthAdjust="spacing" textLength="295" x="75.5" y="459.3666">callProcNameMap: @map&lt;str, u_set&lt;str&gt;&gt;</text><rect fill="none" height="6" style="stroke:#C82930;stroke-width:1.0;" width="6" x="63.5" y="469.0638"/><text fill="#000000" font-family="sans-serif" font-size="14" lengthAdjust="spacing" textLength="296" x="75.5" y="475.8548">readVarNameMap: @map&lt;str, u_set&lt;str&gt;&gt;</text><rect fill="none" height="6" style="stroke:#C82930;stroke-width:1.0;" width="6" x="63.5" y="485.5521"/><text fill="#000000" font-family="sans-serif" font-size="14" lengthAdjust="spacing" textLength="298" x="75.5" y="492.3431">printVarNameMap: @map&lt;str, u_set&lt;str&gt;&gt;</text><rect fill="none" height="6" style="stroke:#C82930;stroke-width:1.0;" width="6" x="63.5" y="502.0404"/><text fill="#000000" font-family="sans-serif" font-size="14" lengthAdjust="spacing" textLength="236" x="75.5" y="508.8314">patternMap: @map&lt;str, @Node&gt;&gt;</text><ellipse cx="66.5" cy="521.5287" fill="#84BE84" rx="3" ry="3" style="stroke:#038048;stroke-width:1.0;"/><text fill="#000000" font-family="sans-serif" font-size="14" lengthAdjust="spacing" textLength="292" x="75.5" y="525.3197">void extract(@ProcessedProgram) override</text><ellipse cx="66.5" cy="538.017" fill="#84BE84" rx="3" ry="3" style="stroke:#038048;stroke-width:1.0;"/><text fill="#000000" font-family="sans-serif" font-size="14" lengthAdjust="spacing" textLength="303" x="75.5" y="541.808">void extract(@ProcessedProcedure) override</text><ellipse cx="66.5" cy="554.5052" fill="#84BE84" rx="3" ry="3" style="stroke:#038048;stroke-width:1.0;"/><text fill="#000000" font-family="sans-serif" font-size="14" lengthAdjust="spacing" textLength="287" x="75.5" y="558.2963">void extract(@ProcessedStmtList) override</text><ellipse cx="66.5" cy="570.9935" fill="#84BE84" rx="3" ry="3" style="stroke:#038048;stroke-width:1.0;"/><text fill="#000000" font-family="sans-serif" font-size="14" lengthAdjust="spacing" textLength="301" x="75.5" y="574.7845">@map&lt;str, u_set&lt;str&gt;&gt; getProcedureMap()</text><line style="stroke:#181818;stroke-width:1.0;" x1="56.5" x2="425.5" y1="581.7377" y2="581.7377"/><text fill="#000000" font-family="sans-serif" font-size="14" lengthAdjust="spacing" textLength="359" x="61.5" y="599.2728">{abstract more overridden extract, getMap methods}</text></g><!--MD5=[b6125f87df00017cab08c65c22e043a5]
class AbstractionExtractor--><g id="elem_AbstractionExtractor"><rect codeLine="48" fill="#F1F1F1" height="163.418" id="AbstractionExtractor" rx="2.5" ry="2.5" style="stroke:#181818;stroke-width:0.5;" width="390" x="242" y="666.2283"/><ellipse cx="361.75" cy="682.2283" fill="#A9DCDF" rx="11" ry="11" style="stroke:#181818;stroke-width:1.0;"/><path d="M361.6133,677.5764 L360.4595,682.6482 L362.7754,682.6482 Z M360.1191,675.3352 L363.1157,675.3352 L366.4609,687.7283 L364.0122,687.7283 L363.2485,684.6653 L359.9697,684.6653 L359.2227,687.7283 L356.7739,687.7283 Z " fill="#000000"/><text fill="#000000" font-family="sans-serif" font-size="14" font-style="italic" lengthAdjust="spacing" textLength="142" x="382.25" y="687.5193">AbstractionExtractor</text><line style="stroke:#181818;stroke-width:0.5;" x1="243" x2="631" y1="698.2283" y2="698.2283"/><ellipse cx="253" cy="711.9724" fill="#84BE84" rx="3" ry="3" style="stroke:#038048;stroke-width:1.0;"/><text fill="#000000" font-family="sans-serif" font-size="14" lengthAdjust="spacing" textLength="364" x="262" y="715.7634">virtual void extractAbstractions(@ProcessedProgram)</text><ellipse cx="253" cy="728.4607" fill="#84BE84" rx="3" ry="3" style="stroke:#038048;stroke-width:1.0;"/><text fill="#000000" font-family="sans-serif" font-size="14" lengthAdjust="spacing" textLength="292" x="262" y="732.2517">void extract(@ProcessedProgram) override</text><ellipse cx="253" cy="744.949" fill="#84BE84" rx="3" ry="3" style="stroke:#038048;stroke-width:1.0;"/><text fill="#000000" font-family="sans-serif" font-size="14" lengthAdjust="spacing" textLength="303" x="262" y="748.74">void extract(@ProcessedProcedure) override</text><ellipse cx="253" cy="761.4373" fill="#84BE84" rx="3" ry="3" style="stroke:#038048;stroke-width:1.0;"/><text fill="#000000" font-family="sans-serif" font-size="14" lengthAdjust="spacing" textLength="287" x="262" y="765.2283">void extract(@ProcessedStmtList) override</text><ellipse cx="253" cy="777.9255" fill="#84BE84" rx="3" ry="3" style="stroke:#038048;stroke-width:1.0;"/><text fill="#000000" font-family="sans-serif" font-size="14" lengthAdjust="spacing" textLength="284" x="262" y="781.7166">@map&lt;str, u_set&lt;str&gt;&gt; getStorageMap()</text><polygon fill="none" points="253,789.4138,257,793.4138,253,797.4138,249,793.4138" style="stroke:#B38D22;stroke-width:1.0;"/><text fill="#000000" font-family="sans-serif" font-size="14" lengthAdjust="spacing" textLength="320" x="262" y="798.2048">@map&lt;str, u_set&lt;str&gt; AbstractionStorageMap</text><line style="stroke:#181818;stroke-width:1.0;" x1="243" x2="631" y1="805.158" y2="805.158"/><text fill="#000000" font-family="sans-serif" font-size="14" lengthAdjust="spacing" textLength="221" x="248" y="822.6931">{abstract more extract methods}</text></g><g id="elem_GMN11"><path d="M667.5,727.6283 L667.5,743.9383 L632.34,747.9383 L667.5,751.9383 L667.5,768.2494 A0,0 0 0 0 667.5,768.2494 L814.5,768.2494 A0,0 0 0 0 814.5,768.2494 L814.5,737.6283 L804.5,727.6283 L667.5,727.6283 A0,0 0 0 0 667.5,727.6283 " fill="#FEFFDD" style="stroke:#181818;stroke-width:0.5;"/><path d="M804.5,727.6283 L804.5,737.6283 L814.5,737.6283 L804.5,727.6283 " fill="#FEFFDD" style="stroke:#181818;stroke-width:0.5;"/><text fill="#000000" font-family="sans-serif" font-size="13" lengthAdjust="spacing" textLength="126" x="673.5" y="745.1966">Further expanded in</text><text fill="#000000" font-family="sans-serif" font-size="13" lengthAdjust="spacing" textLength="72" x="673.5" y="760.5072">another file</text></g><!--MD5=[c4ddf809a18c2e81d738ec1ac703817a]
link GMN3 to DesignExtractor--><g id="link_GMN3_DesignExtractor"><path d="M329.61,185.6883 C341.14,185.6883 352.67,185.6883 364.19,185.6883 " fill="none" id="GMN3-DesignExtractor" style="stroke:#181818;stroke-width:1.0;stroke-dasharray:7.0,7.0;"/></g><!--MD5=[ee1b8161c4ab5c5b8c3a736481a047e8]
link DesignExtractor to Extractor--><g id="link_DesignExtractor_Extractor"><path codeLine="66" d="M599.96,284.3783 C599.11,324.9983 598.15,371.0983 597.39,407.6783 " fill="none" id="DesignExtractor-to-Extractor" style="stroke:#181818;stroke-width:1.0;stroke-dasharray:7.0,7.0;"/><polygon fill="#181818" points="597.26,412.4683,601.4392,403.5501,597.36,407.4693,593.4408,403.3901,597.26,412.4683" style="stroke:#181818;stroke-width:1.0;"/></g><!--MD5=[2e0bb424f41ff03817f7657d678a3eb8]
link EntityExtractor to Extractor--><g id="link_EntityExtractor_Extractor"><path codeLine="67" d="M426.82,475.0583 C431.43,475.0583 436.04,475.0583 440.64,475.0583 " fill="none" id="EntityExtractor-to-Extractor" style="stroke:#181818;stroke-width:1.0;"/><polygon fill="none" points="440.52,468.0583,460.52,475.0583,440.52,482.0583,440.52,468.0583" style="stroke:#181818;stroke-width:1.0;"/></g><!--MD5=[f484c7baa023633a9307f2f8ee88f111]
reverse link Extractor to AbstractionExtractor--><g id="link_Extractor_AbstractionExtractor"><path codeLine="68" d="M550.14,554.1883 C529.58,589.2083 505.35,630.4983 484.59,665.8583 " fill="none" id="Extractor-backto-AbstractionExtractor" style="stroke:#181818;stroke-width:1.0;"/><polygon fill="none" points="544.35,551.2183,560.52,537.5083,556.43,558.2983,544.35,551.2183" style="stroke:#181818;stroke-width:1.0;"/></g><!--MD5=[8157020d618223bba63e1b7b888ab166]
@startuml

title DesignExtractor Overview

package DesignExtractor <<Rectangle>> {
    note left of DesignExtractor
    Shorthand for types used:
    @ - Shared Pointer, str - String, b - Bool,
    strv - String View, v - vector, ∅ - void,
    u_set - u_set
    end note
    Class DesignExtractor {
        -@EntityExtractor entityExtractor
        -@ModifiesExtractor modifiesExtractor
        -@UsesExtractor usesExtractor
        -@ParentsExtractor parentsExtractor
        -@FollowsExtractor followsExtractor
        -@CallsExtractor callsExtractor
        -@NextExtractor nextExtractor
        -@ProcedureLineNumberExtractor procedureLineNumberExtractor
        +void extractAndInsertAll(@ProcessedProgram, b useMultithread)
    }

    Abstract Extractor <<Base>> {
        +void extract(@ProcessedProgram)
        +void extract(@ProcessedProcedure)
        +void extract(@ProcessedStmtList)
        - - -
        {abstract more extract methods}
    }
    Class EntityExtractor {
        - procedureMap: @map<str, u_set<str>>
        - variableMap: @map<str, u_set<str>>
        - statementMap: @map<str, u_set<str>>
        - constantMap: @map<str, u_set<str>>
        - callProcNameMap: @map<str, u_set<str>>
        - readVarNameMap: @map<str, u_set<str>>
        - printVarNameMap: @map<str, u_set<str>>
        - patternMap: @map<str, @Node>>
        +void extract(@ProcessedProgram) override
        +void extract(@ProcessedProcedure) override
        +void extract(@ProcessedStmtList) override
        +@map<str, u_set<str>> getProcedureMap()
        - - -
        {abstract more overridden extract, getMap methods}
    }

    package AbstractionExtractors {
        Abstract AbstractionExtractor {
            +virtual void extractAbstractions(@ProcessedProgram)
            +void extract(@ProcessedProgram) override
            +void extract(@ProcessedProcedure) override
            +void extract(@ProcessedStmtList) override
            +@map<str, u_set<str>> getStorageMap()
            #@map<str, u_set<str> AbstractionStorageMap
            - - -
            {abstract more extract methods}
        }
        note right of AbstractionExtractor
        Further expanded in
        another file
        end note
    }
    
    

    DesignExtractor ..> Extractor
    Extractor <|-left- EntityExtractor
    Extractor <|- - AbstractionExtractor
    
}
@enduml

PlantUML version 1.2022.7(Tue Aug 23 01:01:30 SGT 2022)
(GPL source distribution)
Java Runtime: OpenJDK Runtime Environment
JVM: OpenJDK 64-Bit Server VM
Default Encoding: UTF-8
Language: en
Country: GB
--></g></svg>