<?xml version="1.0" encoding="UTF-8" standalone="no"?><svg xmlns="http://www.w3.org/2000/svg" xmlns:xlink="http://www.w3.org/1999/xlink" contentStyleType="text/css" height="696px" preserveAspectRatio="none" style="width:852px;height:696px;background:#FFFFFF;" version="1.1" viewBox="0 0 852 696" width="852px" zoomAndPan="magnify"><defs/><g><rect fill="none" height="26.4883" id="_title" style="stroke:none;stroke-width:1.0;" width="267" x="285.5" y="5"/><text fill="#000000" font-family="sans-serif" font-size="14" font-weight="bold" lengthAdjust="spacing" textLength="257" x="290.5" y="23.5352">SIMPLE Processor Results Overview</text><!--MD5=[1427efea17e596065dbebdde35b9d515]
cluster SimpleProcessorResults--><g id="cluster_SimpleProcessorResults"><path d="M8.5,43.4883 L182.5,43.4883 A3.75,3.75 0 0 1 185,45.9883 L192,65.9766 L842.5,65.9766 A2.5,2.5 0 0 1 845,68.4766 L845,687.4083 A2.5,2.5 0 0 1 842.5,689.9083 L8.5,689.9083 A2.5,2.5 0 0 1 6,687.4083 L6,45.9883 A2.5,2.5 0 0 1 8.5,43.4883 " fill="none" style="stroke:#000000;stroke-width:1.5;"/><line style="stroke:#000000;stroke-width:1.5;" x1="6" x2="192" y1="65.9766" y2="65.9766"/><text fill="#000000" font-family="sans-serif" font-size="14" font-weight="bold" lengthAdjust="spacing" textLength="173" x="10" y="59.0234">SimpleProcessorResults</text></g><!--MD5=[80cc2a60ed1efdc7ab9aab13ece720c9]
class ProcessedProgram--><g id="elem_ProcessedProgram"><rect codeLine="8" fill="#F1F1F1" height="64.4883" id="ProcessedProgram" rx="2.5" ry="2.5" style="stroke:#000000;stroke-width:0.5;" width="288" x="541" y="78.4883"/><ellipse cx="616.75" cy="94.4883" fill="#ADD1B2" rx="11" ry="11" style="stroke:#181818;stroke-width:1.0;"/><path d="M619.2231,100.6313 Q618.6421,100.9302 618.0029,101.0796 Q617.3638,101.229 616.6582,101.229 Q614.1514,101.229 612.8315,99.5771 Q611.5117,97.9253 611.5117,94.8042 Q611.5117,91.6748 612.8315,90.0229 Q614.1514,88.3711 616.6582,88.3711 Q617.3638,88.3711 618.0112,88.5205 Q618.6587,88.6699 619.2231,88.9688 L619.2231,91.6914 Q618.5923,91.1104 617.9988,90.8406 Q617.4053,90.5708 616.7744,90.5708 Q615.4297,90.5708 614.7449,91.6375 Q614.0601,92.7041 614.0601,94.8042 Q614.0601,96.896 614.7449,97.9626 Q615.4297,99.0293 616.7744,99.0293 Q617.4053,99.0293 617.9988,98.7595 Q618.5923,98.4897 619.2231,97.9087 Z " fill="#000000"/><text fill="#000000" font-family="sans-serif" font-size="14" lengthAdjust="spacing" textLength="128" x="637.25" y="99.7793">ProcessedProgram</text><line style="stroke:#000000;stroke-width:0.5;" x1="542" x2="828" y1="110.4883" y2="110.4883"/><rect fill="none" height="6" style="stroke:#C82930;stroke-width:1.0;" width="6" x="549" y="121.2324"/><text fill="#000000" font-family="sans-serif" font-size="14" lengthAdjust="spacing" textLength="262" x="561" y="128.0234">v&lt;@ProcessedProcedure&gt; procedures</text><line style="stroke:#000000;stroke-width:0.5;" x1="542" x2="828" y1="134.9766" y2="134.9766"/></g><g id="elem_n1"><path d="M124.5,82.7683 L124.5,138.6999 L403.5,138.6999 L403.5,92.7683 L393.5,82.7683 L124.5,82.7683 " fill="#FEFFDD" style="stroke:#181818;stroke-width:0.5;"/><path d="M393.5,82.7683 L393.5,92.7683 L403.5,92.7683 L393.5,82.7683 " fill="#FEFFDD" style="stroke:#181818;stroke-width:1.0;"/><text fill="#000000" font-family="sans-serif" font-size="13" lengthAdjust="spacing" textLength="162" x="130.5" y="100.3366">Shorthand for types used:</text><text fill="#000000" font-family="sans-serif" font-size="13" lengthAdjust="spacing" textLength="258" x="130.5" y="115.6472">@ - Shared Pointer, str - String, b - Bool,</text><text fill="#000000" font-family="sans-serif" font-size="13" lengthAdjust="spacing" textLength="240" x="130.5" y="130.9577">strv - String View, v - vector, ∅ - void</text></g><!--MD5=[587fa777991dcfe6b1138ce41194da41]
class ProcessedProcedure--><g id="elem_ProcessedProcedure"><rect codeLine="18" fill="#F1F1F1" height="80.9766" id="ProcessedProcedure" rx="2.5" ry="2.5" style="stroke:#000000;stroke-width:0.5;" width="256" x="562" y="202.9783"/><ellipse cx="616.25" cy="218.9783" fill="#ADD1B2" rx="11" ry="11" style="stroke:#181818;stroke-width:1.0;"/><path d="M618.7231,225.1213 Q618.1421,225.4202 617.5029,225.5696 Q616.8638,225.719 616.1582,225.719 Q613.6514,225.719 612.3315,224.0671 Q611.0117,222.4153 611.0117,219.2942 Q611.0117,216.1648 612.3315,214.5129 Q613.6514,212.8611 616.1582,212.8611 Q616.8638,212.8611 617.5112,213.0105 Q618.1587,213.1599 618.7231,213.4587 L618.7231,216.1814 Q618.0923,215.6004 617.4988,215.3306 Q616.9053,215.0608 616.2744,215.0608 Q614.9297,215.0608 614.2449,216.1275 Q613.5601,217.1941 613.5601,219.2942 Q613.5601,221.386 614.2449,222.4526 Q614.9297,223.5193 616.2744,223.5193 Q616.9053,223.5193 617.4988,223.2495 Q618.0923,222.9797 618.7231,222.3987 Z " fill="#000000"/><text fill="#000000" font-family="sans-serif" font-size="14" lengthAdjust="spacing" textLength="139" x="636.75" y="224.2693">ProcessedProcedure</text><line style="stroke:#000000;stroke-width:0.5;" x1="563" x2="817" y1="234.9783" y2="234.9783"/><rect fill="none" height="6" style="stroke:#C82930;stroke-width:1.0;" width="6" x="570" y="245.7224"/><text fill="#000000" font-family="sans-serif" font-size="14" lengthAdjust="spacing" textLength="154" x="582" y="252.5134">string procedureName</text><rect fill="none" height="6" style="stroke:#C82930;stroke-width:1.0;" width="6" x="570" y="262.2107"/><text fill="#000000" font-family="sans-serif" font-size="14" lengthAdjust="spacing" textLength="230" x="582" y="269.0017">@ProcessedStmtList statementList</text><line style="stroke:#000000;stroke-width:0.5;" x1="563" x2="817" y1="275.9548" y2="275.9548"/></g><!--MD5=[8f51f229ac1f8caca5ec0e52f46973b6]
class ProcessedStmtList--><g id="elem_ProcessedStmtList"><rect codeLine="23" fill="#F1F1F1" height="64.4883" id="ProcessedStmtList" rx="2.5" ry="2.5" style="stroke:#000000;stroke-width:0.5;" width="246" x="288" y="343.9583"/><ellipse cx="345.25" cy="359.9583" fill="#ADD1B2" rx="11" ry="11" style="stroke:#181818;stroke-width:1.0;"/><path d="M347.7231,366.1013 Q347.1421,366.4002 346.5029,366.5496 Q345.8638,366.699 345.1582,366.699 Q342.6514,366.699 341.3315,365.0471 Q340.0117,363.3953 340.0117,360.2742 Q340.0117,357.1448 341.3315,355.4929 Q342.6514,353.8411 345.1582,353.8411 Q345.8638,353.8411 346.5112,353.9905 Q347.1587,354.1399 347.7231,354.4387 L347.7231,357.1614 Q347.0923,356.5804 346.4988,356.3106 Q345.9053,356.0408 345.2744,356.0408 Q343.9297,356.0408 343.2449,357.1075 Q342.5601,358.1741 342.5601,360.2742 Q342.5601,362.366 343.2449,363.4326 Q343.9297,364.4993 345.2744,364.4993 Q345.9053,364.4993 346.4988,364.2295 Q347.0923,363.9597 347.7231,363.3787 Z " fill="#000000"/><text fill="#000000" font-family="sans-serif" font-size="14" lengthAdjust="spacing" textLength="123" x="365.75" y="365.2493">ProcessedStmtList</text><line style="stroke:#000000;stroke-width:0.5;" x1="289" x2="533" y1="375.9583" y2="375.9583"/><rect fill="none" height="6" style="stroke:#C82930;stroke-width:1.0;" width="6" x="296" y="386.7024"/><text fill="#000000" font-family="sans-serif" font-size="14" lengthAdjust="spacing" textLength="220" x="308" y="393.4934">v&lt;@ProcessedStmt&gt; statements</text><line style="stroke:#000000;stroke-width:0.5;" x1="289" x2="533" y1="400.4466" y2="400.4466"/></g><!--MD5=[2f18b797336bd9e9774d05d13f72ddde]
class ProcessedStmt--><g id="elem_ProcessedStmt"><rect codeLine="27" fill="#F1F1F1" height="64.4883" id="ProcessedStmt" rx="2.5" ry="2.5" style="stroke:#000000;stroke-width:0.5;" width="212" x="305" y="468.4483"/><ellipse cx="356.75" cy="484.4483" fill="#ADD1B2" rx="11" ry="11" style="stroke:#181818;stroke-width:1.0;"/><path d="M359.2231,490.5913 Q358.6421,490.8902 358.0029,491.0396 Q357.3638,491.189 356.6582,491.189 Q354.1514,491.189 352.8315,489.5371 Q351.5117,487.8853 351.5117,484.7642 Q351.5117,481.6348 352.8315,479.9829 Q354.1514,478.3311 356.6582,478.3311 Q357.3638,478.3311 358.0112,478.4805 Q358.6587,478.6299 359.2231,478.9287 L359.2231,481.6514 Q358.5923,481.0704 357.9988,480.8006 Q357.4053,480.5308 356.7744,480.5308 Q355.4297,480.5308 354.7449,481.5975 Q354.0601,482.6641 354.0601,484.7642 Q354.0601,486.856 354.7449,487.9226 Q355.4297,488.9893 356.7744,488.9893 Q357.4053,488.9893 357.9988,488.7195 Q358.5923,488.4497 359.2231,487.8687 Z " fill="#000000"/><text fill="#000000" font-family="sans-serif" font-size="14" lengthAdjust="spacing" textLength="100" x="377.25" y="489.7393">ProcessedStmt</text><line style="stroke:#000000;stroke-width:0.5;" x1="306" x2="516" y1="500.4483" y2="500.4483"/><rect fill="none" height="6" style="stroke:#C82930;stroke-width:1.0;" width="6" x="313" y="511.1924"/><text fill="#000000" font-family="sans-serif" font-size="14" lengthAdjust="spacing" textLength="186" x="325" y="517.9834">const int statementNumber</text><line style="stroke:#000000;stroke-width:0.5;" x1="306" x2="516" y1="524.9366" y2="524.9366"/></g><!--MD5=[6e8c3aba62c57ca450087740cfad61b7]
class ProcessedSemicolonStmt--><g id="elem_ProcessedSemicolonStmt"><rect codeLine="31" fill="#F1F1F1" height="64.4883" id="ProcessedSemicolonStmt" rx="2.5" ry="2.5" style="stroke:#000000;stroke-width:0.5;" width="203" x="568.5" y="343.9583"/><ellipse cx="583.5" cy="359.9583" fill="#ADD1B2" rx="11" ry="11" style="stroke:#181818;stroke-width:1.0;"/><path d="M585.9731,366.1013 Q585.3921,366.4002 584.7529,366.5496 Q584.1138,366.699 583.4082,366.699 Q580.9014,366.699 579.5815,365.0471 Q578.2617,363.3953 578.2617,360.2742 Q578.2617,357.1448 579.5815,355.4929 Q580.9014,353.8411 583.4082,353.8411 Q584.1138,353.8411 584.7612,353.9905 Q585.4087,354.1399 585.9731,354.4387 L585.9731,357.1614 Q585.3423,356.5804 584.7488,356.3106 Q584.1553,356.0408 583.5244,356.0408 Q582.1797,356.0408 581.4949,357.1075 Q580.8101,358.1741 580.8101,360.2742 Q580.8101,362.366 581.4949,363.4326 Q582.1797,364.4993 583.5244,364.4993 Q584.1553,364.4993 584.7488,364.2295 Q585.3423,363.9597 585.9731,363.3787 Z " fill="#000000"/><text fill="#000000" font-family="sans-serif" font-size="14" lengthAdjust="spacing" textLength="171" x="597.5" y="365.2493">ProcessedSemicolonStmt</text><line style="stroke:#000000;stroke-width:0.5;" x1="569.5" x2="770.5" y1="375.9583" y2="375.9583"/><rect fill="none" height="6" style="stroke:#C82930;stroke-width:1.0;" width="6" x="576.5" y="386.7024"/><text fill="#000000" font-family="sans-serif" font-size="14" lengthAdjust="spacing" textLength="147" x="588.5" y="393.4934">v&lt;@Token&gt; contents</text><line style="stroke:#000000;stroke-width:0.5;" x1="569.5" x2="770.5" y1="400.4466" y2="400.4466"/></g><!--MD5=[2740f865929d432f7eaffab8f9bc8d7a]
class ProcessedConditionalStmt--><g id="elem_ProcessedConditionalStmt"><rect codeLine="35" fill="#F1F1F1" height="64.4883" id="ProcessedConditionalStmt" rx="2.5" ry="2.5" style="stroke:#000000;stroke-width:0.5;" width="217" x="35.5" y="343.9583"/><ellipse cx="52.75" cy="359.9583" fill="#ADD1B2" rx="11" ry="11" style="stroke:#181818;stroke-width:1.0;"/><path d="M55.2231,366.1013 Q54.6421,366.4002 54.0029,366.5496 Q53.3638,366.699 52.6582,366.699 Q50.1514,366.699 48.8315,365.0471 Q47.5117,363.3953 47.5117,360.2742 Q47.5117,357.1448 48.8315,355.4929 Q50.1514,353.8411 52.6582,353.8411 Q53.3638,353.8411 54.0112,353.9905 Q54.6587,354.1399 55.2231,354.4387 L55.2231,357.1614 Q54.5923,356.5804 53.9988,356.3106 Q53.4053,356.0408 52.7744,356.0408 Q51.4297,356.0408 50.7449,357.1075 Q50.0601,358.1741 50.0601,360.2742 Q50.0601,362.366 50.7449,363.4326 Q51.4297,364.4993 52.7744,364.4993 Q53.4053,364.4993 53.9988,364.2295 Q54.5923,363.9597 55.2231,363.3787 Z " fill="#000000"/><text fill="#000000" font-family="sans-serif" font-size="14" lengthAdjust="spacing" textLength="180" x="67.25" y="365.2493">ProcessedConditionalStmt</text><line style="stroke:#000000;stroke-width:0.5;" x1="36.5" x2="251.5" y1="375.9583" y2="375.9583"/><rect fill="none" height="6" style="stroke:#C82930;stroke-width:1.0;" width="6" x="43.5" y="386.7024"/><text fill="#000000" font-family="sans-serif" font-size="14" lengthAdjust="spacing" textLength="191" x="55.5" y="393.4934">v&lt;@Token&gt; conditionalExp</text><line style="stroke:#000000;stroke-width:0.5;" x1="36.5" x2="251.5" y1="400.4466" y2="400.4466"/></g><!--MD5=[3438159f61064c7639c5c2b1a1964624]
class ProcessedIfStmt--><g id="elem_ProcessedIfStmt"><rect codeLine="39" fill="#F1F1F1" height="80.9766" id="ProcessedIfStmt" rx="2.5" ry="2.5" style="stroke:#000000;stroke-width:0.5;" width="232" x="295" y="202.9783"/><ellipse cx="352.25" cy="218.9783" fill="#ADD1B2" rx="11" ry="11" style="stroke:#181818;stroke-width:1.0;"/><path d="M354.7231,225.1213 Q354.1421,225.4202 353.5029,225.5696 Q352.8638,225.719 352.1582,225.719 Q349.6514,225.719 348.3315,224.0671 Q347.0117,222.4153 347.0117,219.2942 Q347.0117,216.1648 348.3315,214.5129 Q349.6514,212.8611 352.1582,212.8611 Q352.8638,212.8611 353.5112,213.0105 Q354.1587,213.1599 354.7231,213.4587 L354.7231,216.1814 Q354.0923,215.6004 353.4988,215.3306 Q352.9053,215.0608 352.2744,215.0608 Q350.9297,215.0608 350.2449,216.1275 Q349.5601,217.1941 349.5601,219.2942 Q349.5601,221.386 350.2449,222.4526 Q350.9297,223.5193 352.2744,223.5193 Q352.9053,223.5193 353.4988,223.2495 Q354.0923,222.9797 354.7231,222.3987 Z " fill="#000000"/><text fill="#000000" font-family="sans-serif" font-size="14" lengthAdjust="spacing" textLength="109" x="372.75" y="224.2693">ProcessedIfStmt</text><line style="stroke:#000000;stroke-width:0.5;" x1="296" x2="526" y1="234.9783" y2="234.9783"/><rect fill="none" height="6" style="stroke:#C82930;stroke-width:1.0;" width="6" x="303" y="245.7224"/><text fill="#000000" font-family="sans-serif" font-size="14" lengthAdjust="spacing" textLength="206" x="315" y="252.5134">@ProcessedStmtList thenBlock</text><rect fill="none" height="6" style="stroke:#C82930;stroke-width:1.0;" width="6" x="303" y="262.2107"/><text fill="#000000" font-family="sans-serif" font-size="14" lengthAdjust="spacing" textLength="202" x="315" y="269.0017">@ProcessedStmtList elseBlock</text><line style="stroke:#000000;stroke-width:0.5;" x1="296" x2="526" y1="275.9548" y2="275.9548"/></g><!--MD5=[a2bb25f3eed79c32e466bc1220d95383]
class ProcessedWhileStmt--><g id="elem_ProcessedWhileStmt"><rect codeLine="44" fill="#F1F1F1" height="64.4883" id="ProcessedWhileStmt" rx="2.5" ry="2.5" style="stroke:#000000;stroke-width:0.5;" width="237" x="22.5" y="211.2183"/><ellipse cx="68.25" cy="227.2183" fill="#ADD1B2" rx="11" ry="11" style="stroke:#181818;stroke-width:1.0;"/><path d="M70.7231,233.3613 Q70.1421,233.6602 69.5029,233.8096 Q68.8638,233.959 68.1582,233.959 Q65.6514,233.959 64.3315,232.3071 Q63.0117,230.6553 63.0117,227.5342 Q63.0117,224.4048 64.3315,222.7529 Q65.6514,221.1011 68.1582,221.1011 Q68.8638,221.1011 69.5112,221.2505 Q70.1587,221.3999 70.7231,221.6987 L70.7231,224.4214 Q70.0923,223.8404 69.4988,223.5706 Q68.9053,223.3008 68.2744,223.3008 Q66.9297,223.3008 66.2449,224.3675 Q65.5601,225.4341 65.5601,227.5342 Q65.5601,229.626 66.2449,230.6926 Q66.9297,231.7593 68.2744,231.7593 Q68.9053,231.7593 69.4988,231.4895 Q70.0923,231.2197 70.7231,230.6387 Z " fill="#000000"/><text fill="#000000" font-family="sans-serif" font-size="14" lengthAdjust="spacing" textLength="137" x="88.75" y="232.5093">ProcessedWhileStmt</text><line style="stroke:#000000;stroke-width:0.5;" x1="23.5" x2="258.5" y1="243.2183" y2="243.2183"/><rect fill="none" height="6" style="stroke:#C82930;stroke-width:1.0;" width="6" x="30.5" y="253.9624"/><text fill="#000000" font-family="sans-serif" font-size="14" lengthAdjust="spacing" textLength="211" x="42.5" y="260.7534">@ProcessedStmtList whileBlock</text><line style="stroke:#000000;stroke-width:0.5;" x1="23.5" x2="258.5" y1="267.7066" y2="267.7066"/></g><!--MD5=[44bea86837b53c46d292ea6e2f249d5b]
class ProcessedAssignStmt--><g id="elem_ProcessedAssignStmt"><rect codeLine="47" fill="#F1F1F1" height="80.9766" id="ProcessedAssignStmt" rx="2.5" ry="2.5" style="stroke:#000000;stroke-width:0.5;" width="178" x="22" y="592.9283"/><ellipse cx="37" cy="608.9283" fill="#ADD1B2" rx="11" ry="11" style="stroke:#181818;stroke-width:1.0;"/><path d="M39.4731,615.0713 Q38.8921,615.3702 38.2529,615.5196 Q37.6138,615.669 36.9082,615.669 Q34.4014,615.669 33.0815,614.0171 Q31.7617,612.3653 31.7617,609.2442 Q31.7617,606.1148 33.0815,604.4629 Q34.4014,602.8111 36.9082,602.8111 Q37.6138,602.8111 38.2612,602.9605 Q38.9087,603.1099 39.4731,603.4087 L39.4731,606.1314 Q38.8423,605.5504 38.2488,605.2806 Q37.6553,605.0108 37.0244,605.0108 Q35.6797,605.0108 34.9949,606.0775 Q34.3101,607.1441 34.3101,609.2442 Q34.3101,611.336 34.9949,612.4026 Q35.6797,613.4693 37.0244,613.4693 Q37.6553,613.4693 38.2488,613.1995 Q38.8423,612.9297 39.4731,612.3487 Z " fill="#000000"/><text fill="#000000" font-family="sans-serif" font-size="14" lengthAdjust="spacing" textLength="146" x="51" y="614.2193">ProcessedAssignStmt</text><line style="stroke:#000000;stroke-width:0.5;" x1="23" x2="199" y1="624.9283" y2="624.9283"/><rect fill="none" height="6" style="stroke:#C82930;stroke-width:1.0;" width="6" x="30" y="635.6724"/><text fill="#000000" font-family="sans-serif" font-size="14" lengthAdjust="spacing" textLength="84" x="42" y="642.4634">@Token LHS</text><rect fill="none" height="6" style="stroke:#C82930;stroke-width:1.0;" width="6" x="30" y="652.1607"/><text fill="#000000" font-family="sans-serif" font-size="14" lengthAdjust="spacing" textLength="79" x="42" y="658.9517">@Node RHS</text><line style="stroke:#000000;stroke-width:0.5;" x1="23" x2="199" y1="665.9048" y2="665.9048"/></g><!--MD5=[ec9696beefd773cca4d45c63313f4b98]
class ProcessedCallStmt--><g id="elem_ProcessedCallStmt"><rect codeLine="51" fill="#F1F1F1" height="64.4883" id="ProcessedCallStmt" rx="2.5" ry="2.5" style="stroke:#000000;stroke-width:0.5;" width="195" x="234.5" y="601.1783"/><ellipse cx="266.15" cy="617.1783" fill="#ADD1B2" rx="11" ry="11" style="stroke:#181818;stroke-width:1.0;"/><path d="M268.6231,623.3213 Q268.0421,623.6202 267.4029,623.7696 Q266.7638,623.919 266.0582,623.919 Q263.5514,623.919 262.2315,622.2671 Q260.9117,620.6153 260.9117,617.4942 Q260.9117,614.3648 262.2315,612.7129 Q263.5514,611.0611 266.0582,611.0611 Q266.7638,611.0611 267.4112,611.2105 Q268.0587,611.3599 268.6231,611.6587 L268.6231,614.3814 Q267.9923,613.8004 267.3988,613.5306 Q266.8053,613.2608 266.1744,613.2608 Q264.8297,613.2608 264.1449,614.3275 Q263.4601,615.3941 263.4601,617.4942 Q263.4601,619.586 264.1449,620.6526 Q264.8297,621.7193 266.1744,621.7193 Q266.8053,621.7193 267.3988,621.4495 Q267.9923,621.1797 268.6231,620.5987 Z " fill="#000000"/><text fill="#000000" font-family="sans-serif" font-size="14" lengthAdjust="spacing" textLength="126" x="283.85" y="622.4693">ProcessedCallStmt</text><line style="stroke:#000000;stroke-width:0.5;" x1="235.5" x2="428.5" y1="633.1783" y2="633.1783"/><rect fill="none" height="6" style="stroke:#C82930;stroke-width:1.0;" width="6" x="242.5" y="643.9224"/><text fill="#000000" font-family="sans-serif" font-size="14" lengthAdjust="spacing" textLength="169" x="254.5" y="650.7134">@Token procedureName</text><line style="stroke:#000000;stroke-width:0.5;" x1="235.5" x2="428.5" y1="657.6666" y2="657.6666"/></g><!--MD5=[733fc6bd61a772841a91fc48b1463cbd]
class ProcessedPrintStmt--><g id="elem_ProcessedPrintStmt"><rect codeLine="54" fill="#F1F1F1" height="64.4883" id="ProcessedPrintStmt" rx="2.5" ry="2.5" style="stroke:#000000;stroke-width:0.5;" width="164" x="464" y="601.1783"/><ellipse cx="479" cy="617.1783" fill="#ADD1B2" rx="11" ry="11" style="stroke:#181818;stroke-width:1.0;"/><path d="M481.4731,623.3213 Q480.8921,623.6202 480.2529,623.7696 Q479.6138,623.919 478.9082,623.919 Q476.4014,623.919 475.0815,622.2671 Q473.7617,620.6153 473.7617,617.4942 Q473.7617,614.3648 475.0815,612.7129 Q476.4014,611.0611 478.9082,611.0611 Q479.6138,611.0611 480.2612,611.2105 Q480.9087,611.3599 481.4731,611.6587 L481.4731,614.3814 Q480.8423,613.8004 480.2488,613.5306 Q479.6553,613.2608 479.0244,613.2608 Q477.6797,613.2608 476.9949,614.3275 Q476.3101,615.3941 476.3101,617.4942 Q476.3101,619.586 476.9949,620.6526 Q477.6797,621.7193 479.0244,621.7193 Q479.6553,621.7193 480.2488,621.4495 Q480.8423,621.1797 481.4731,620.5987 Z " fill="#000000"/><text fill="#000000" font-family="sans-serif" font-size="14" lengthAdjust="spacing" textLength="132" x="493" y="622.4693">ProcessedPrintStmt</text><line style="stroke:#000000;stroke-width:0.5;" x1="465" x2="627" y1="633.1783" y2="633.1783"/><rect fill="none" height="6" style="stroke:#C82930;stroke-width:1.0;" width="6" x="472" y="643.9224"/><text fill="#000000" font-family="sans-serif" font-size="14" lengthAdjust="spacing" textLength="113" x="484" y="650.7134">@Token variable</text><line style="stroke:#000000;stroke-width:0.5;" x1="465" x2="627" y1="657.6666" y2="657.6666"/></g><!--MD5=[feb4b70a1b6925a20e50453f4d4f55b4]
class ProcessedReadStmt--><g id="elem_ProcessedReadStmt"><rect codeLine="57" fill="#F1F1F1" height="64.4883" id="ProcessedReadStmt" rx="2.5" ry="2.5" style="stroke:#000000;stroke-width:0.5;" width="166" x="663" y="601.1783"/><ellipse cx="678" cy="617.1783" fill="#ADD1B2" rx="11" ry="11" style="stroke:#181818;stroke-width:1.0;"/><path d="M680.4731,623.3213 Q679.8921,623.6202 679.2529,623.7696 Q678.6138,623.919 677.9082,623.919 Q675.4014,623.919 674.0815,622.2671 Q672.7617,620.6153 672.7617,617.4942 Q672.7617,614.3648 674.0815,612.7129 Q675.4014,611.0611 677.9082,611.0611 Q678.6138,611.0611 679.2612,611.2105 Q679.9087,611.3599 680.4731,611.6587 L680.4731,614.3814 Q679.8423,613.8004 679.2488,613.5306 Q678.6553,613.2608 678.0244,613.2608 Q676.6797,613.2608 675.9949,614.3275 Q675.3101,615.3941 675.3101,617.4942 Q675.3101,619.586 675.9949,620.6526 Q676.6797,621.7193 678.0244,621.7193 Q678.6553,621.7193 679.2488,621.4495 Q679.8423,621.1797 680.4731,620.5987 Z " fill="#000000"/><text fill="#000000" font-family="sans-serif" font-size="14" lengthAdjust="spacing" textLength="134" x="692" y="622.4693">ProcessedReadStmt</text><line style="stroke:#000000;stroke-width:0.5;" x1="664" x2="828" y1="633.1783" y2="633.1783"/><rect fill="none" height="6" style="stroke:#C82930;stroke-width:1.0;" width="6" x="671" y="643.9224"/><text fill="#000000" font-family="sans-serif" font-size="14" lengthAdjust="spacing" textLength="113" x="683" y="650.7134">@Token variable</text><line style="stroke:#000000;stroke-width:0.5;" x1="664" x2="828" y1="657.6666" y2="657.6666"/></g><!--MD5=[d6920c1637429a64a65922c9acb3d7ae]
reverse link ProcessedProgram to ProcessedProcedure--><g id="link_ProcessedProgram_ProcessedProcedure"><path codeLine="61" d="M686.73,157.0383 C687.3,171.8883 687.93,188.2683 688.48,202.6783 " fill="none" id="ProcessedProgram-backto-ProcessedProcedure" style="stroke:#181818;stroke-width:1.0;"/><polygon fill="#181818" points="686.21,144.3783,682.4438,150.5277,686.6717,156.3694,690.4379,150.2199,686.21,144.3783" style="stroke:#181818;stroke-width:1.0;"/></g><!--MD5=[db25b68c38a23b1ae2a696a23bbf8dbc]
reverse link ProcessedProcedure to ProcessedStmtList--><g id="link_ProcessedProcedure_ProcessedStmtList"><path codeLine="62" d="M592.22,290.2883 C554.63,307.8983 512.58,327.5983 478.47,343.5883 " fill="none" id="ProcessedProcedure-backto-ProcessedStmtList" style="stroke:#181818;stroke-width:1.0;"/><polygon fill="#181818" points="603.77,284.3983,596.6398,283.3213,592.9032,289.4888,600.0334,290.5658,603.77,284.3983" style="stroke:#181818;stroke-width:1.0;"/></g><!--MD5=[6b61ed5d211f5838ea698ec3638f11e6]
reverse link ProcessedStmtList to ProcessedStmt--><g id="link_ProcessedStmtList_ProcessedStmt"><path codeLine="63" d="M411,422.7183 C411,437.8683 411,454.4083 411,468.2483 " fill="none" id="ProcessedStmtList-backto-ProcessedStmt" style="stroke:#181818;stroke-width:1.0;"/><polygon fill="#181818" points="411,409.7383,407,415.7383,411,421.7383,415,415.7383,411,409.7383" style="stroke:#181818;stroke-width:1.0;"/></g><!--MD5=[ad601a6d9261e94582b9565bd8b08695]
reverse link ProcessedIfStmt to ProcessedStmtList--><g id="link_ProcessedIfStmt_ProcessedStmtList"><path codeLine="64" d="M411,298.2683 C411,313.7583 411,330.1483 411,343.7983 " fill="none" id="ProcessedIfStmt-backto-ProcessedStmtList" style="stroke:#181818;stroke-width:1.0;"/><polygon fill="#181818" points="411,285.3983,407,291.3983,411,297.3983,415,291.3983,411,285.3983" style="stroke:#181818;stroke-width:1.0;"/></g><!--MD5=[254a6f25603b359a278260c2272de025]
reverse link ProcessedWhileStmt to ProcessedStmtList--><g id="link_ProcessedWhileStmt_ProcessedStmtList"><path codeLine="65" d="M218.83,282.1483 C259.04,301.6183 307.55,325.1083 345.78,343.6183 " fill="none" id="ProcessedWhileStmt-backto-ProcessedStmtList" style="stroke:#181818;stroke-width:1.0;"/><polygon fill="#181818" points="207.36,276.1183,211.0205,282.3312,218.1634,281.3419,214.5029,275.129,207.36,276.1183" style="stroke:#181818;stroke-width:1.0;"/></g><!--MD5=[02728978ddf5474cae2c4beab50ea80a]
link ProcessedIfStmt to ProcessedConditionalStmt--><g id="link_ProcessedIfStmt_ProcessedConditionalStmt"><path codeLine="67" d="M329.44,284.3983 C297.01,300.2783 259.73,318.5383 227.14,334.4883 " fill="none" id="ProcessedIfStmt-to-ProcessedConditionalStmt" style="stroke:#181818;stroke-width:1.0;"/><polygon fill="none" points="230.6,341.0783,209.56,343.5883,224.45,328.5083,230.6,341.0783" style="stroke:#181818;stroke-width:1.0;"/></g><!--MD5=[c15ed2351c3e9f104c0db488c88c8ade]
link ProcessedWhileStmt to ProcessedConditionalStmt--><g id="link_ProcessedWhileStmt_ProcessedConditionalStmt"><path codeLine="68" d="M141.73,276.1183 C142.05,290.1683 142.44,307.0783 142.8,322.9183 " fill="none" id="ProcessedWhileStmt-to-ProcessedConditionalStmt" style="stroke:#181818;stroke-width:1.0;"/><polygon fill="none" points="149.82,322.6883,143.28,342.8483,135.82,323.0083,149.82,322.6883" style="stroke:#181818;stroke-width:1.0;"/></g><!--MD5=[8a2e3bb465592ba6632ed93670de1c47]
link ProcessedConditionalStmt to ProcessedStmt--><g id="link_ProcessedConditionalStmt_ProcessedStmt"><path codeLine="69" d="M213.11,408.8983 C246.77,424.3483 287.61,443.0783 323.43,459.5183 " fill="none" id="ProcessedConditionalStmt-to-ProcessedStmt" style="stroke:#181818;stroke-width:1.0;"/><polygon fill="none" points="325.92,453.4183,341.18,468.1183,320.09,466.1383,325.92,453.4183" style="stroke:#181818;stroke-width:1.0;"/></g><!--MD5=[e1e8392e1269088094ca04171d618772]
link ProcessedSemicolonStmt to ProcessedStmt--><g id="link_ProcessedSemicolonStmt_ProcessedStmt"><path codeLine="70" d="M602.96,408.8983 C570.46,424.2683 531.06,442.9083 496.43,459.2883 " fill="none" id="ProcessedSemicolonStmt-to-ProcessedStmt" style="stroke:#181818;stroke-width:1.0;"/><polygon fill="none" points="499.83,465.8983,478.75,468.1183,493.84,453.2383,499.83,465.8983" style="stroke:#181818;stroke-width:1.0;"/></g><!--MD5=[911463992488b8be6d4e065a3a7edc0e]
reverse link ProcessedStmt to ProcessedAssignStmt--><g id="link_ProcessedStmt_ProcessedAssignStmt"><path codeLine="71" d="M319.23,541.6783 C281.47,558.1383 237.88,577.1283 200.37,593.4783 " fill="none" id="ProcessedStmt-backto-ProcessedAssignStmt" style="stroke:#181818;stroke-width:1.0;"/><polygon fill="none" points="316.25,534.9083,337.38,533.3383,321.84,547.7383,316.25,534.9083" style="stroke:#181818;stroke-width:1.0;"/></g><!--MD5=[4eccb2d1dc272e7805f070e292b5a62d]
reverse link ProcessedStmt to ProcessedCallStmt--><g id="link_ProcessedStmt_ProcessedCallStmt"><path codeLine="72" d="M381.17,551.0483 C371.04,567.8183 359.99,586.0883 350.95,601.0683 " fill="none" id="ProcessedStmt-backto-ProcessedCallStmt" style="stroke:#181818;stroke-width:1.0;"/><polygon fill="none" points="375.54,547.8283,391.88,534.3383,387.52,555.0683,375.54,547.8283" style="stroke:#181818;stroke-width:1.0;"/></g><!--MD5=[6cb36f2b913406e3858cbade041e82a4]
reverse link ProcessedStmt to ProcessedPrintStmt--><g id="link_ProcessedStmt_ProcessedPrintStmt"><path codeLine="73" d="M458.66,547.8383 C476.86,565.4583 497.17,585.1283 513.62,601.0683 " fill="none" id="ProcessedStmt-backto-ProcessedPrintStmt" style="stroke:#181818;stroke-width:1.0;"/><polygon fill="none" points="454.18,553.2783,444.68,534.3383,463.92,543.2183,454.18,553.2783" style="stroke:#181818;stroke-width:1.0;"/></g><!--MD5=[7090c23d605afd081f05508c9f52cba7]
reverse link ProcessedStmt to ProcessedReadStmt--><g id="link_ProcessedStmt_ProcessedReadStmt"><path codeLine="74" d="M512.32,540.8783 C553.78,556.9583 602.21,575.7883 646,592.9283 C652.43,595.4483 659.09,598.0683 665.78,600.6983 " fill="none" id="ProcessedStmt-backto-ProcessedReadStmt" style="stroke:#181818;stroke-width:1.0;"/><polygon fill="none" points="510,547.0983,493.88,533.3483,515.06,534.0483,510,547.0983" style="stroke:#181818;stroke-width:1.0;"/></g><!--MD5=[ba84656cb3ce37095454ee78d0cb6c86]
@startuml
' !include ../style.puml
skinparam ClassFontColor #000000
skinparam ClassBorderColor #000000

title SIMPLE Processor Results Overview

package SimpleProcessorResults {
    Class ProcessedProgram {
        - v<@ProcessedProcedure> procedures
    }

    note as n1
        Shorthand for types used:
        @ - Shared Pointer, str - String, b - Bool,
        strv - String View, v - vector, ∅ - void
    end note

    Class ProcessedProcedure {
        - string procedureName
        - @ProcessedStmtList statementList
    }

    Class ProcessedStmtList {
        - v<@ProcessedStmt> statements
    }

    Class ProcessedStmt {
        - const int statementNumber
    }

    Class ProcessedSemicolonStmt {
        - v<@Token> contents
    }

    Class ProcessedConditionalStmt {
        - v<@Token> conditionalExp
    }

    Class ProcessedIfStmt {
        - @ProcessedStmtList thenBlock
        - @ProcessedStmtList elseBlock
    }

    Class ProcessedWhileStmt {
        - @ProcessedStmtList whileBlock
    }
    Class ProcessedAssignStmt {
        - @Token LHS
        - @Node RHS
    }
    Class ProcessedCallStmt {
        - @Token procedureName
    }
    Class ProcessedPrintStmt {
        - @Token variable
    }
    Class ProcessedReadStmt {
        - @Token variable
    }
}
ProcessedProgram *- - ProcessedProcedure
ProcessedProcedure *- - ProcessedStmtList
ProcessedStmtList *- - ProcessedStmt
ProcessedIfStmt *- - ProcessedStmtList
ProcessedWhileStmt *- - ProcessedStmtList

ProcessedIfStmt - -|> ProcessedConditionalStmt
ProcessedWhileStmt - -|> ProcessedConditionalStmt
ProcessedConditionalStmt - -|> ProcessedStmt
ProcessedSemicolonStmt - -|> ProcessedStmt
ProcessedAssignStmt -up-|> ProcessedStmt
ProcessedCallStmt -up-|> ProcessedStmt
ProcessedPrintStmt -up-|> ProcessedStmt
ProcessedReadStmt -up-|> ProcessedStmt

@end

@startuml
skinparam ClassFontColor #000000
skinparam ClassBorderColor #000000

title SIMPLE Processor Results Overview

package SimpleProcessorResults {
    Class ProcessedProgram {
        - v<@ProcessedProcedure> procedures
    }

    note as n1
        Shorthand for types used:
        @ - Shared Pointer, str - String, b - Bool,
        strv - String View, v - vector, ∅ - void
    end note

    Class ProcessedProcedure {
        - string procedureName
        - @ProcessedStmtList statementList
    }

    Class ProcessedStmtList {
        - v<@ProcessedStmt> statements
    }

    Class ProcessedStmt {
        - const int statementNumber
    }

    Class ProcessedSemicolonStmt {
        - v<@Token> contents
    }

    Class ProcessedConditionalStmt {
        - v<@Token> conditionalExp
    }

    Class ProcessedIfStmt {
        - @ProcessedStmtList thenBlock
        - @ProcessedStmtList elseBlock
    }

    Class ProcessedWhileStmt {
        - @ProcessedStmtList whileBlock
    }
    Class ProcessedAssignStmt {
        - @Token LHS
        - @Node RHS
    }
    Class ProcessedCallStmt {
        - @Token procedureName
    }
    Class ProcessedPrintStmt {
        - @Token variable
    }
    Class ProcessedReadStmt {
        - @Token variable
    }
}
ProcessedProgram *- - ProcessedProcedure
ProcessedProcedure *- - ProcessedStmtList
ProcessedStmtList *- - ProcessedStmt
ProcessedIfStmt *- - ProcessedStmtList
ProcessedWhileStmt *- - ProcessedStmtList

ProcessedIfStmt - -|> ProcessedConditionalStmt
ProcessedWhileStmt - -|> ProcessedConditionalStmt
ProcessedConditionalStmt - -|> ProcessedStmt
ProcessedSemicolonStmt - -|> ProcessedStmt
ProcessedAssignStmt -up-|> ProcessedStmt
ProcessedCallStmt -up-|> ProcessedStmt
ProcessedPrintStmt -up-|> ProcessedStmt
ProcessedReadStmt -up-|> ProcessedStmt

@end

PlantUML version 1.2022.7(Tue Aug 23 01:01:30 SGT 2022)
(GPL source distribution)
Java Runtime: OpenJDK Runtime Environment
JVM: OpenJDK 64-Bit Server VM
Default Encoding: UTF-8
Language: en
Country: GB
--></g></svg>