<?xml version="1.0" encoding="UTF-8" standalone="no"?><svg xmlns="http://www.w3.org/2000/svg" xmlns:xlink="http://www.w3.org/1999/xlink" contentStyleType="text/css" height="365px" preserveAspectRatio="none" style="width:1123px;height:365px;background:#FFFFFF;" version="1.1" viewBox="0 0 1123 365" width="1123px" zoomAndPan="magnify"><defs/><g><rect fill="none" height="26.4883" id="_title" style="stroke:none;stroke-width:1.0;" width="185" x="462" y="5"/><text fill="#000000" font-family="sans-serif" font-size="14" font-weight="bold" lengthAdjust="spacing" textLength="175" x="467" y="23.5352">BinaryOpNode Overview</text><!--MD5=[94298ef1fb96ae6bd1f0dde49dad2f63]
cluster BinaryOpNode--><g id="cluster_BinaryOpNode"><rect fill="none" height="315" rx="2.5" ry="2.5" style="stroke:#181818;stroke-width:1.0;" width="1110" x="7" y="44.4883"/><text fill="#000000" font-family="sans-serif" font-size="14" font-weight="bold" lengthAdjust="spacing" textLength="103" x="510.5" y="60.0234">BinaryOpNode</text></g><!--MD5=[b5950dd3829489fffab5a79919f8e703]
class BinaryOpNode--><g id="elem_BinaryOpNode"><rect codeLine="5" fill="#F1F1F1" height="48" id="BinaryOpNode" rx="2.5" ry="2.5" style="stroke:#181818;stroke-width:0.5;" width="130" x="420" y="187.4883"/><ellipse cx="435" cy="203.4883" fill="#ADD1B2" rx="11" ry="11" style="stroke:#181818;stroke-width:1.0;"/><path d="M437.4731,209.6313 Q436.8921,209.9302 436.2529,210.0796 Q435.6138,210.229 434.9082,210.229 Q432.4014,210.229 431.0815,208.5771 Q429.7617,206.9253 429.7617,203.8042 Q429.7617,200.6748 431.0815,199.0229 Q432.4014,197.3711 434.9082,197.3711 Q435.6138,197.3711 436.2612,197.5205 Q436.9087,197.6699 437.4731,197.9688 L437.4731,200.6914 Q436.8423,200.1104 436.2488,199.8406 Q435.6553,199.5708 435.0244,199.5708 Q433.6797,199.5708 432.9949,200.6375 Q432.3101,201.7041 432.3101,203.8042 Q432.3101,205.896 432.9949,206.9626 Q433.6797,208.0293 435.0244,208.0293 Q435.6553,208.0293 436.2488,207.7595 Q436.8423,207.4897 437.4731,206.9087 Z " fill="#000000"/><text fill="#000000" font-family="sans-serif" font-size="14" lengthAdjust="spacing" textLength="98" x="449" y="208.7793">BinaryOpNode</text><line style="stroke:#181818;stroke-width:0.5;" x1="421" x2="549" y1="219.4883" y2="219.4883"/><line style="stroke:#181818;stroke-width:0.5;" x1="421" x2="549" y1="227.4883" y2="227.4883"/></g><!--MD5=[d3d47289e7ebf9d431bfae776415bd10]
class PlusNode--><g id="elem_PlusNode"><rect codeLine="6" fill="#F1F1F1" height="48" id="PlusNode" rx="2.5" ry="2.5" style="stroke:#181818;stroke-width:0.5;" width="96" x="300" y="79.4883"/><ellipse cx="315" cy="95.4883" fill="#ADD1B2" rx="11" ry="11" style="stroke:#181818;stroke-width:1.0;"/><path d="M317.4731,101.6313 Q316.8921,101.9302 316.2529,102.0796 Q315.6138,102.229 314.9082,102.229 Q312.4014,102.229 311.0815,100.5771 Q309.7617,98.9253 309.7617,95.8042 Q309.7617,92.6748 311.0815,91.0229 Q312.4014,89.3711 314.9082,89.3711 Q315.6138,89.3711 316.2612,89.5205 Q316.9087,89.6699 317.4731,89.9688 L317.4731,92.6914 Q316.8423,92.1104 316.2488,91.8406 Q315.6553,91.5708 315.0244,91.5708 Q313.6797,91.5708 312.9949,92.6375 Q312.3101,93.7041 312.3101,95.8042 Q312.3101,97.896 312.9949,98.9626 Q313.6797,100.0293 315.0244,100.0293 Q315.6553,100.0293 316.2488,99.7595 Q316.8423,99.4897 317.4731,98.9087 Z " fill="#000000"/><text fill="#000000" font-family="sans-serif" font-size="14" lengthAdjust="spacing" textLength="64" x="329" y="100.7793">PlusNode</text><line style="stroke:#181818;stroke-width:0.5;" x1="301" x2="395" y1="111.4883" y2="111.4883"/><line style="stroke:#181818;stroke-width:0.5;" x1="301" x2="395" y1="119.4883" y2="119.4883"/></g><!--MD5=[6023d7309ca27c27cd016d5e9fdf10e1]
class MinusNode--><g id="elem_MinusNode"><rect codeLine="7" fill="#F1F1F1" height="48" id="MinusNode" rx="2.5" ry="2.5" style="stroke:#181818;stroke-width:0.5;" width="109" x="430.5" y="79.4883"/><ellipse cx="445.5" cy="95.4883" fill="#ADD1B2" rx="11" ry="11" style="stroke:#181818;stroke-width:1.0;"/><path d="M447.9731,101.6313 Q447.3921,101.9302 446.7529,102.0796 Q446.1138,102.229 445.4082,102.229 Q442.9014,102.229 441.5815,100.5771 Q440.2617,98.9253 440.2617,95.8042 Q440.2617,92.6748 441.5815,91.0229 Q442.9014,89.3711 445.4082,89.3711 Q446.1138,89.3711 446.7612,89.5205 Q447.4087,89.6699 447.9731,89.9688 L447.9731,92.6914 Q447.3423,92.1104 446.7488,91.8406 Q446.1553,91.5708 445.5244,91.5708 Q444.1797,91.5708 443.4949,92.6375 Q442.8101,93.7041 442.8101,95.8042 Q442.8101,97.896 443.4949,98.9626 Q444.1797,100.0293 445.5244,100.0293 Q446.1553,100.0293 446.7488,99.7595 Q447.3423,99.4897 447.9731,98.9087 Z " fill="#000000"/><text fill="#000000" font-family="sans-serif" font-size="14" lengthAdjust="spacing" textLength="77" x="459.5" y="100.7793">MinusNode</text><line style="stroke:#181818;stroke-width:0.5;" x1="431.5" x2="538.5" y1="111.4883" y2="111.4883"/><line style="stroke:#181818;stroke-width:0.5;" x1="431.5" x2="538.5" y1="119.4883" y2="119.4883"/></g><!--MD5=[eeb273108950f207c7dccb1d52330d44]
class MultiplyNode--><g id="elem_MultiplyNode"><rect codeLine="8" fill="#F1F1F1" height="48" id="MultiplyNode" rx="2.5" ry="2.5" style="stroke:#181818;stroke-width:0.5;" width="122" x="574" y="79.4883"/><ellipse cx="589" cy="95.4883" fill="#ADD1B2" rx="11" ry="11" style="stroke:#181818;stroke-width:1.0;"/><path d="M591.4731,101.6313 Q590.8921,101.9302 590.2529,102.0796 Q589.6138,102.229 588.9082,102.229 Q586.4014,102.229 585.0815,100.5771 Q583.7617,98.9253 583.7617,95.8042 Q583.7617,92.6748 585.0815,91.0229 Q586.4014,89.3711 588.9082,89.3711 Q589.6138,89.3711 590.2612,89.5205 Q590.9087,89.6699 591.4731,89.9688 L591.4731,92.6914 Q590.8423,92.1104 590.2488,91.8406 Q589.6553,91.5708 589.0244,91.5708 Q587.6797,91.5708 586.9949,92.6375 Q586.3101,93.7041 586.3101,95.8042 Q586.3101,97.896 586.9949,98.9626 Q587.6797,100.0293 589.0244,100.0293 Q589.6553,100.0293 590.2488,99.7595 Q590.8423,99.4897 591.4731,98.9087 Z " fill="#000000"/><text fill="#000000" font-family="sans-serif" font-size="14" lengthAdjust="spacing" textLength="90" x="603" y="100.7793">MultiplyNode</text><line style="stroke:#181818;stroke-width:0.5;" x1="575" x2="695" y1="111.4883" y2="111.4883"/><line style="stroke:#181818;stroke-width:0.5;" x1="575" x2="695" y1="119.4883" y2="119.4883"/></g><!--MD5=[3d37d482a5ce80000eedb1d27365b609]
class DivideNode--><g id="elem_DivideNode"><rect codeLine="9" fill="#F1F1F1" height="48" id="DivideNode" rx="2.5" ry="2.5" style="stroke:#181818;stroke-width:0.5;" width="110" x="275" y="187.4883"/><ellipse cx="290" cy="203.4883" fill="#ADD1B2" rx="11" ry="11" style="stroke:#181818;stroke-width:1.0;"/><path d="M292.4731,209.6313 Q291.8921,209.9302 291.2529,210.0796 Q290.6138,210.229 289.9082,210.229 Q287.4014,210.229 286.0815,208.5771 Q284.7617,206.9253 284.7617,203.8042 Q284.7617,200.6748 286.0815,199.0229 Q287.4014,197.3711 289.9082,197.3711 Q290.6138,197.3711 291.2612,197.5205 Q291.9087,197.6699 292.4731,197.9688 L292.4731,200.6914 Q291.8423,200.1104 291.2488,199.8406 Q290.6553,199.5708 290.0244,199.5708 Q288.6797,199.5708 287.9949,200.6375 Q287.3101,201.7041 287.3101,203.8042 Q287.3101,205.896 287.9949,206.9626 Q288.6797,208.0293 290.0244,208.0293 Q290.6553,208.0293 291.2488,207.7595 Q291.8423,207.4897 292.4731,206.9087 Z " fill="#000000"/><text fill="#000000" font-family="sans-serif" font-size="14" lengthAdjust="spacing" textLength="78" x="304" y="208.7793">DivideNode</text><line style="stroke:#181818;stroke-width:0.5;" x1="276" x2="384" y1="219.4883" y2="219.4883"/><line style="stroke:#181818;stroke-width:0.5;" x1="276" x2="384" y1="227.4883" y2="227.4883"/></g><!--MD5=[126c49020cbf7d9c444f4ddc9ecfb677]
class AndNode--><g id="elem_AndNode"><rect codeLine="10" fill="#F1F1F1" height="48" id="AndNode" rx="2.5" ry="2.5" style="stroke:#181818;stroke-width:0.5;" width="96" x="144" y="187.4883"/><ellipse cx="159" cy="203.4883" fill="#ADD1B2" rx="11" ry="11" style="stroke:#181818;stroke-width:1.0;"/><path d="M161.4731,209.6313 Q160.8921,209.9302 160.2529,210.0796 Q159.6138,210.229 158.9082,210.229 Q156.4014,210.229 155.0815,208.5771 Q153.7617,206.9253 153.7617,203.8042 Q153.7617,200.6748 155.0815,199.0229 Q156.4014,197.3711 158.9082,197.3711 Q159.6138,197.3711 160.2612,197.5205 Q160.9087,197.6699 161.4731,197.9688 L161.4731,200.6914 Q160.8423,200.1104 160.2488,199.8406 Q159.6553,199.5708 159.0244,199.5708 Q157.6797,199.5708 156.9949,200.6375 Q156.3101,201.7041 156.3101,203.8042 Q156.3101,205.896 156.9949,206.9626 Q157.6797,208.0293 159.0244,208.0293 Q159.6553,208.0293 160.2488,207.7595 Q160.8423,207.4897 161.4731,206.9087 Z " fill="#000000"/><text fill="#000000" font-family="sans-serif" font-size="14" lengthAdjust="spacing" textLength="64" x="173" y="208.7793">AndNode</text><line style="stroke:#181818;stroke-width:0.5;" x1="145" x2="239" y1="219.4883" y2="219.4883"/><line style="stroke:#181818;stroke-width:0.5;" x1="145" x2="239" y1="227.4883" y2="227.4883"/></g><!--MD5=[3e35ec486f1a3fdb421463fcf8e5e617]
class OrNode--><g id="elem_OrNode"><rect codeLine="11" fill="#F1F1F1" height="48" id="OrNode" rx="2.5" ry="2.5" style="stroke:#181818;stroke-width:0.5;" width="85" x="23.5" y="187.4883"/><ellipse cx="38.5" cy="203.4883" fill="#ADD1B2" rx="11" ry="11" style="stroke:#181818;stroke-width:1.0;"/><path d="M40.9731,209.6313 Q40.3921,209.9302 39.7529,210.0796 Q39.1138,210.229 38.4082,210.229 Q35.9014,210.229 34.5815,208.5771 Q33.2617,206.9253 33.2617,203.8042 Q33.2617,200.6748 34.5815,199.0229 Q35.9014,197.3711 38.4082,197.3711 Q39.1138,197.3711 39.7612,197.5205 Q40.4087,197.6699 40.9731,197.9688 L40.9731,200.6914 Q40.3423,200.1104 39.7488,199.8406 Q39.1553,199.5708 38.5244,199.5708 Q37.1797,199.5708 36.4949,200.6375 Q35.8101,201.7041 35.8101,203.8042 Q35.8101,205.896 36.4949,206.9626 Q37.1797,208.0293 38.5244,208.0293 Q39.1553,208.0293 39.7488,207.7595 Q40.3423,207.4897 40.9731,206.9087 Z " fill="#000000"/><text fill="#000000" font-family="sans-serif" font-size="14" lengthAdjust="spacing" textLength="53" x="52.5" y="208.7793">OrNode</text><line style="stroke:#181818;stroke-width:0.5;" x1="24.5" x2="107.5" y1="219.4883" y2="219.4883"/><line style="stroke:#181818;stroke-width:0.5;" x1="24.5" x2="107.5" y1="227.4883" y2="227.4883"/></g><!--MD5=[b0f50304dd90c49907a3910a64bd56e3]
class MoreThanNode--><g id="elem_MoreThanNode"><rect codeLine="12" fill="#F1F1F1" height="48" id="MoreThanNode" rx="2.5" ry="2.5" style="stroke:#181818;stroke-width:0.5;" width="138" x="963" y="187.4883"/><ellipse cx="978" cy="203.4883" fill="#ADD1B2" rx="11" ry="11" style="stroke:#181818;stroke-width:1.0;"/><path d="M980.4731,209.6313 Q979.8921,209.9302 979.2529,210.0796 Q978.6138,210.229 977.9082,210.229 Q975.4014,210.229 974.0815,208.5771 Q972.7617,206.9253 972.7617,203.8042 Q972.7617,200.6748 974.0815,199.0229 Q975.4014,197.3711 977.9082,197.3711 Q978.6138,197.3711 979.2612,197.5205 Q979.9087,197.6699 980.4731,197.9688 L980.4731,200.6914 Q979.8423,200.1104 979.2488,199.8406 Q978.6553,199.5708 978.0244,199.5708 Q976.6797,199.5708 975.9949,200.6375 Q975.3101,201.7041 975.3101,203.8042 Q975.3101,205.896 975.9949,206.9626 Q976.6797,208.0293 978.0244,208.0293 Q978.6553,208.0293 979.2488,207.7595 Q979.8423,207.4897 980.4731,206.9087 Z " fill="#000000"/><text fill="#000000" font-family="sans-serif" font-size="14" lengthAdjust="spacing" textLength="106" x="992" y="208.7793">MoreThanNode</text><line style="stroke:#181818;stroke-width:0.5;" x1="964" x2="1100" y1="219.4883" y2="219.4883"/><line style="stroke:#181818;stroke-width:0.5;" x1="964" x2="1100" y1="227.4883" y2="227.4883"/></g><!--MD5=[e1ba70603b48203a1779330a8d9e8ae5]
class LessThanNode--><g id="elem_LessThanNode"><rect codeLine="13" fill="#F1F1F1" height="48" id="LessThanNode" rx="2.5" ry="2.5" style="stroke:#181818;stroke-width:0.5;" width="132" x="796" y="187.4883"/><ellipse cx="811" cy="203.4883" fill="#ADD1B2" rx="11" ry="11" style="stroke:#181818;stroke-width:1.0;"/><path d="M813.4731,209.6313 Q812.8921,209.9302 812.2529,210.0796 Q811.6138,210.229 810.9082,210.229 Q808.4014,210.229 807.0815,208.5771 Q805.7617,206.9253 805.7617,203.8042 Q805.7617,200.6748 807.0815,199.0229 Q808.4014,197.3711 810.9082,197.3711 Q811.6138,197.3711 812.2612,197.5205 Q812.9087,197.6699 813.4731,197.9688 L813.4731,200.6914 Q812.8423,200.1104 812.2488,199.8406 Q811.6553,199.5708 811.0244,199.5708 Q809.6797,199.5708 808.9949,200.6375 Q808.3101,201.7041 808.3101,203.8042 Q808.3101,205.896 808.9949,206.9626 Q809.6797,208.0293 811.0244,208.0293 Q811.6553,208.0293 812.2488,207.7595 Q812.8423,207.4897 813.4731,206.9087 Z " fill="#000000"/><text fill="#000000" font-family="sans-serif" font-size="14" lengthAdjust="spacing" textLength="100" x="825" y="208.7793">LessThanNode</text><line style="stroke:#181818;stroke-width:0.5;" x1="797" x2="927" y1="219.4883" y2="219.4883"/><line style="stroke:#181818;stroke-width:0.5;" x1="797" x2="927" y1="227.4883" y2="227.4883"/></g><!--MD5=[f192b3b0986f56959bc765b01461cc5b]
class MoreThanEqualNode--><g id="elem_MoreThanEqualNode"><rect codeLine="14" fill="#F1F1F1" height="48" id="MoreThanEqualNode" rx="2.5" ry="2.5" style="stroke:#181818;stroke-width:0.5;" width="176" x="585" y="187.4883"/><ellipse cx="600" cy="203.4883" fill="#ADD1B2" rx="11" ry="11" style="stroke:#181818;stroke-width:1.0;"/><path d="M602.4731,209.6313 Q601.8921,209.9302 601.2529,210.0796 Q600.6138,210.229 599.9082,210.229 Q597.4014,210.229 596.0815,208.5771 Q594.7617,206.9253 594.7617,203.8042 Q594.7617,200.6748 596.0815,199.0229 Q597.4014,197.3711 599.9082,197.3711 Q600.6138,197.3711 601.2612,197.5205 Q601.9087,197.6699 602.4731,197.9688 L602.4731,200.6914 Q601.8423,200.1104 601.2488,199.8406 Q600.6553,199.5708 600.0244,199.5708 Q598.6797,199.5708 597.9949,200.6375 Q597.3101,201.7041 597.3101,203.8042 Q597.3101,205.896 597.9949,206.9626 Q598.6797,208.0293 600.0244,208.0293 Q600.6553,208.0293 601.2488,207.7595 Q601.8423,207.4897 602.4731,206.9087 Z " fill="#000000"/><text fill="#000000" font-family="sans-serif" font-size="14" lengthAdjust="spacing" textLength="144" x="614" y="208.7793">MoreThanEqualNode</text><line style="stroke:#181818;stroke-width:0.5;" x1="586" x2="760" y1="219.4883" y2="219.4883"/><line style="stroke:#181818;stroke-width:0.5;" x1="586" x2="760" y1="227.4883" y2="227.4883"/></g><!--MD5=[84e40a894181cb6e82bb4ef601e885ac]
class LessThanEqualNode--><g id="elem_LessThanEqualNode"><rect codeLine="15" fill="#F1F1F1" height="48" id="LessThanEqualNode" rx="2.5" ry="2.5" style="stroke:#181818;stroke-width:0.5;" width="170" x="219" y="295.4883"/><ellipse cx="234" cy="311.4883" fill="#ADD1B2" rx="11" ry="11" style="stroke:#181818;stroke-width:1.0;"/><path d="M236.4731,317.6313 Q235.8921,317.9302 235.2529,318.0796 Q234.6138,318.229 233.9082,318.229 Q231.4014,318.229 230.0815,316.5771 Q228.7617,314.9253 228.7617,311.8042 Q228.7617,308.6748 230.0815,307.0229 Q231.4014,305.3711 233.9082,305.3711 Q234.6138,305.3711 235.2612,305.5205 Q235.9087,305.6699 236.4731,305.9688 L236.4731,308.6914 Q235.8423,308.1104 235.2488,307.8406 Q234.6553,307.5708 234.0244,307.5708 Q232.6797,307.5708 231.9949,308.6375 Q231.3101,309.7041 231.3101,311.8042 Q231.3101,313.896 231.9949,314.9626 Q232.6797,316.0293 234.0244,316.0293 Q234.6553,316.0293 235.2488,315.7595 Q235.8423,315.4897 236.4731,314.9087 Z " fill="#000000"/><text fill="#000000" font-family="sans-serif" font-size="14" lengthAdjust="spacing" textLength="138" x="248" y="316.7793">LessThanEqualNode</text><line style="stroke:#181818;stroke-width:0.5;" x1="220" x2="388" y1="327.4883" y2="327.4883"/><line style="stroke:#181818;stroke-width:0.5;" x1="220" x2="388" y1="335.4883" y2="335.4883"/></g><!--MD5=[9ceb068e6e2e5c2c505fdff3c50f2a51]
class EqualityNode--><g id="elem_EqualityNode"><rect codeLine="16" fill="#F1F1F1" height="48" id="EqualityNode" rx="2.5" ry="2.5" style="stroke:#181818;stroke-width:0.5;" width="122" x="424" y="295.4883"/><ellipse cx="439" cy="311.4883" fill="#ADD1B2" rx="11" ry="11" style="stroke:#181818;stroke-width:1.0;"/><path d="M441.4731,317.6313 Q440.8921,317.9302 440.2529,318.0796 Q439.6138,318.229 438.9082,318.229 Q436.4014,318.229 435.0815,316.5771 Q433.7617,314.9253 433.7617,311.8042 Q433.7617,308.6748 435.0815,307.0229 Q436.4014,305.3711 438.9082,305.3711 Q439.6138,305.3711 440.2612,305.5205 Q440.9087,305.6699 441.4731,305.9688 L441.4731,308.6914 Q440.8423,308.1104 440.2488,307.8406 Q439.6553,307.5708 439.0244,307.5708 Q437.6797,307.5708 436.9949,308.6375 Q436.3101,309.7041 436.3101,311.8042 Q436.3101,313.896 436.9949,314.9626 Q437.6797,316.0293 439.0244,316.0293 Q439.6553,316.0293 440.2488,315.7595 Q440.8423,315.4897 441.4731,314.9087 Z " fill="#000000"/><text fill="#000000" font-family="sans-serif" font-size="14" lengthAdjust="spacing" textLength="90" x="453" y="316.7793">EqualityNode</text><line style="stroke:#181818;stroke-width:0.5;" x1="425" x2="545" y1="327.4883" y2="327.4883"/><line style="stroke:#181818;stroke-width:0.5;" x1="425" x2="545" y1="335.4883" y2="335.4883"/></g><!--MD5=[549ac1ad2ba07b54bfe7057eba72e4d1]
class InequalityNode--><g id="elem_InequalityNode"><rect codeLine="17" fill="#F1F1F1" height="48" id="InequalityNode" rx="2.5" ry="2.5" style="stroke:#181818;stroke-width:0.5;" width="135" x="580.5" y="295.4883"/><ellipse cx="595.5" cy="311.4883" fill="#ADD1B2" rx="11" ry="11" style="stroke:#181818;stroke-width:1.0;"/><path d="M597.9731,317.6313 Q597.3921,317.9302 596.7529,318.0796 Q596.1138,318.229 595.4082,318.229 Q592.9014,318.229 591.5815,316.5771 Q590.2617,314.9253 590.2617,311.8042 Q590.2617,308.6748 591.5815,307.0229 Q592.9014,305.3711 595.4082,305.3711 Q596.1138,305.3711 596.7612,305.5205 Q597.4087,305.6699 597.9731,305.9688 L597.9731,308.6914 Q597.3423,308.1104 596.7488,307.8406 Q596.1553,307.5708 595.5244,307.5708 Q594.1797,307.5708 593.4949,308.6375 Q592.8101,309.7041 592.8101,311.8042 Q592.8101,313.896 593.4949,314.9626 Q594.1797,316.0293 595.5244,316.0293 Q596.1553,316.0293 596.7488,315.7595 Q597.3423,315.4897 597.9731,314.9087 Z " fill="#000000"/><text fill="#000000" font-family="sans-serif" font-size="14" lengthAdjust="spacing" textLength="103" x="609.5" y="316.7793">InequalityNode</text><line style="stroke:#181818;stroke-width:0.5;" x1="581.5" x2="714.5" y1="327.4883" y2="327.4883"/><line style="stroke:#181818;stroke-width:0.5;" x1="581.5" x2="714.5" y1="335.4883" y2="335.4883"/></g><!--MD5=[89d440c914789c08746b3b2976fb348f]
link PlusNode to BinaryOpNode--><g id="link_PlusNode_BinaryOpNode"><path codeLine="19" d="M378.07,127.7483 C395.82,141.4883 418.67,159.1683 438.69,174.6583 " fill="none" id="PlusNode-to-BinaryOpNode" style="stroke:#181818;stroke-width:1.0;"/><polygon fill="none" points="442.47,169.5083,454,187.2783,433.9,180.5783,442.47,169.5083" style="stroke:#181818;stroke-width:1.0;"/></g><!--MD5=[846e1987769c896dadc75238f8674711]
link MinusNode to BinaryOpNode--><g id="link_MinusNode_BinaryOpNode"><path codeLine="20" d="M485,127.7483 C485,139.0683 485,153.0683 485,166.3183 " fill="none" id="MinusNode-to-BinaryOpNode" style="stroke:#181818;stroke-width:1.0;"/><polygon fill="none" points="492,166.2783,485,186.2783,478,166.2783,492,166.2783" style="stroke:#181818;stroke-width:1.0;"/></g><!--MD5=[ddd085311065e478fee28f2014d34f09]
link MultiplyNode to BinaryOpNode--><g id="link_MultiplyNode_BinaryOpNode"><path codeLine="21" d="M602.08,127.7483 C582.42,141.6483 557.04,159.5783 534.95,175.1883 " fill="none" id="MultiplyNode-to-BinaryOpNode" style="stroke:#181818;stroke-width:1.0;"/><polygon fill="none" points="539.47,181.2683,519.1,187.0983,531.39,169.8383,539.47,181.2683" style="stroke:#181818;stroke-width:1.0;"/></g><!--MD5=[119cff19e719f6d32c2aa538981f6c8d]
link DivideNode to BinaryOpNode--><g id="link_DivideNode_BinaryOpNode"><path codeLine="22" d="M385.4,211.4883 C389.86,211.4883 394.32,211.4883 398.77,211.4883 " fill="none" id="DivideNode-to-BinaryOpNode" style="stroke:#181818;stroke-width:1.0;"/><polygon fill="none" points="398.64,204.4883,418.64,211.4883,398.64,218.4883,398.64,204.4883" style="stroke:#181818;stroke-width:1.0;"/></g><!--MD5=[b4c9b63c67d4e1cb90fa1274984a8476]
link AndNode to BinaryOpNode--><g id="link_AndNode_BinaryOpNode"><path codeLine="23" d="M220.07,187.2183 C235.13,175.7983 254.65,163.4083 274.5,157.4883 C321.78,143.3883 337.68,145.3483 385.5,157.4883 C401.53,161.5583 417.77,168.7883 432.35,176.6583 " fill="none" id="AndNode-to-BinaryOpNode" style="stroke:#181818;stroke-width:1.0;"/><polygon fill="none" points="435.64,171.0483,449.4,187.1583,428.6,183.1483,435.64,171.0483" style="stroke:#181818;stroke-width:1.0;"/></g><!--MD5=[3efd10f36372b3652b51bce6f192e314]
link OrNode to BinaryOpNode--><g id="link_OrNode_BinaryOpNode"><path codeLine="24" d="M92.52,187.2283 C106.8,175.8183 125.39,163.4283 144.5,157.4883 C246.79,125.7083 281.68,131.1283 385.5,157.4883 C401.53,161.5583 417.77,168.7883 432.35,176.6583 " fill="none" id="OrNode-to-BinaryOpNode" style="stroke:#181818;stroke-width:1.0;"/><polygon fill="none" points="435.64,171.0483,449.4,187.1583,428.6,183.1483,435.64,171.0483" style="stroke:#181818;stroke-width:1.0;"/></g><!--MD5=[2043093ff0047772ae1222fcb596893c]
reverse link BinaryOpNode to MoreThanNode--><g id="link_BinaryOpNode_MoreThanNode"><path codeLine="25" d="M537.72,176.9183 C552.58,168.9483 569.16,161.5983 585.5,157.4883 C732.9,120.3983 779.8,121.5783 927.5,157.4883 C951.51,163.3283 976.17,175.7083 995.5,187.1483 " fill="none" id="BinaryOpNode-backto-MoreThanNode" style="stroke:#181818;stroke-width:1.0;"/><polygon fill="none" points="541.8,183.2183,520.98,187.1583,534.8,171.0983,541.8,183.2183" style="stroke:#181818;stroke-width:1.0;"/></g><!--MD5=[52507c6fb2e62fb69aef980f390da641]
reverse link BinaryOpNode to LessThanNode--><g id="link_BinaryOpNode_LessThanNode"><path codeLine="26" d="M537.72,176.9183 C552.58,168.9483 569.16,161.5983 585.5,157.4883 C660.93,138.5083 685.03,138.6583 760.5,157.4883 C783.93,163.3383 807.89,175.7183 826.64,187.1483 " fill="none" id="BinaryOpNode-backto-LessThanNode" style="stroke:#181818;stroke-width:1.0;"/><polygon fill="none" points="541.8,183.2183,520.98,187.1583,534.8,171.0983,541.8,183.2183" style="stroke:#181818;stroke-width:1.0;"/></g><!--MD5=[8c3e7315f5923edce539ccca41b1dd33]
reverse link BinaryOpNode to MoreThanEqualNode--><g id="link_BinaryOpNode_MoreThanEqualNode"><path codeLine="27" d="M571.11,211.4883 C575.69,211.4883 580.27,211.4883 584.85,211.4883 " fill="none" id="BinaryOpNode-backto-MoreThanEqualNode" style="stroke:#181818;stroke-width:1.0;"/><polygon fill="none" points="571.36,218.4883,551.36,211.4883,571.36,204.4883,571.36,218.4883" style="stroke:#181818;stroke-width:1.0;"/></g><!--MD5=[9c9bc769e508a0e58e40ef80d47d82a7]
reverse link BinaryOpNode to LessThanEqualNode--><g id="link_BinaryOpNode_LessThanEqualNode"><path codeLine="28" d="M427.34,246.2583 C400.17,262.1683 368.42,280.7583 343.94,295.0983 " fill="none" id="BinaryOpNode-backto-LessThanEqualNode" style="stroke:#181818;stroke-width:1.0;"/><polygon fill="none" points="423.48,239.8183,444.28,235.7483,430.56,251.8983,423.48,239.8183" style="stroke:#181818;stroke-width:1.0;"/></g><!--MD5=[9bc4cae9d213761651fb00ebab00ede7]
reverse link BinaryOpNode to EqualityNode--><g id="link_BinaryOpNode_EqualityNode"><path codeLine="29" d="M485,256.7283 C485,269.9683 485,283.9683 485,295.2783 " fill="none" id="BinaryOpNode-backto-EqualityNode" style="stroke:#181818;stroke-width:1.0;"/><polygon fill="none" points="478,256.7483,485,236.7483,492,256.7483,478,256.7483" style="stroke:#181818;stroke-width:1.0;"/></g><!--MD5=[0a682fd87c841e700e04eb3e16791ea7]
reverse link BinaryOpNode to InequalityNode--><g id="link_BinaryOpNode_InequalityNode"><path codeLine="30" d="M538.34,247.1783 C562.49,262.8883 590.41,281.0383 612.03,295.0983 " fill="none" id="BinaryOpNode-backto-InequalityNode" style="stroke:#181818;stroke-width:1.0;"/><polygon fill="none" points="534.72,252.5183,521.77,235.7483,542.35,240.7883,534.72,252.5183" style="stroke:#181818;stroke-width:1.0;"/></g><!--MD5=[c9dee51fb2451061b1f2d5163b0a594e]
@startuml

title BinaryOpNode Overview

package BinaryOpNode <<Rectangle>> {
    Class BinaryOpNode
    Class PlusNode
    Class MinusNode
    Class MultiplyNode
    Class DivideNode
    Class AndNode
    Class OrNode
    Class MoreThanNode
    Class LessThanNode
    Class MoreThanEqualNode
    Class LessThanEqualNode
    Class EqualityNode
    Class InequalityNode

    BinaryOpNode <|-up- PlusNode
    BinaryOpNode <|-up- MinusNode
    BinaryOpNode <|-up- MultiplyNode
    BinaryOpNode <|-left- DivideNode
    BinaryOpNode <|-left- AndNode
    BinaryOpNode <|-left- OrNode
    BinaryOpNode <|-right- MoreThanNode
    BinaryOpNode <|-right- LessThanNode
    BinaryOpNode <|-right- MoreThanEqualNode
    BinaryOpNode <|- - LessThanEqualNode
    BinaryOpNode <|- - EqualityNode
    BinaryOpNode <|- - InequalityNode

}
@enduml

PlantUML version 1.2022.7(Tue Aug 23 01:01:30 SGT 2022)
(GPL source distribution)
Java Runtime: OpenJDK Runtime Environment
JVM: OpenJDK 64-Bit Server VM
Default Encoding: UTF-8
Language: en
Country: GB
--></g></svg>