<?xml version="1.0" encoding="UTF-8" standalone="no"?><svg xmlns="http://www.w3.org/2000/svg" xmlns:xlink="http://www.w3.org/1999/xlink" contentStyleType="text/css" height="513px" preserveAspectRatio="none" style="width:1373px;height:513px;background:#FFFFFF;" version="1.1" viewBox="0 0 1373 513" width="1373px" zoomAndPan="magnify"><defs/><g><rect fill="none" height="26.4883" id="_title" style="stroke:none;stroke-width:1.0;" width="237" x="561" y="5"/><text fill="#000000" font-family="sans-serif" font-size="14" font-weight="bold" lengthAdjust="spacing" textLength="227" x="566" y="23.5352">AbstractionExtractors Overview</text><!--MD5=[ece34bcf537843fd7fdf79b809bce691]
class AbstractionStarExtractor--><g id="elem_AbstractionStarExtractor"><rect codeLine="4" fill="#F1F1F1" height="130.4414" id="AbstractionStarExtractor" rx="2.5" ry="2.5" style="stroke:#181818;stroke-width:0.5;" width="472" x="210.5" y="44.4883"/><ellipse cx="357.75" cy="60.4883" fill="#ADD1B2" rx="11" ry="11" style="stroke:#181818;stroke-width:1.0;"/><path d="M360.2231,66.6313 Q359.6421,66.9302 359.0029,67.0796 Q358.3638,67.229 357.6582,67.229 Q355.1514,67.229 353.8315,65.5771 Q352.5117,63.9253 352.5117,60.8042 Q352.5117,57.6748 353.8315,56.0229 Q355.1514,54.3711 357.6582,54.3711 Q358.3638,54.3711 359.0112,54.5205 Q359.6587,54.6699 360.2231,54.9688 L360.2231,57.6914 Q359.5923,57.1104 358.9988,56.8406 Q358.4053,56.5708 357.7744,56.5708 Q356.4297,56.5708 355.7449,57.6375 Q355.0601,58.7041 355.0601,60.8042 Q355.0601,62.896 355.7449,63.9626 Q356.4297,65.0293 357.7744,65.0293 Q358.4053,65.0293 358.9988,64.7595 Q359.5923,64.4897 360.2231,63.9087 Z " fill="#000000"/><text fill="#000000" font-family="sans-serif" font-size="14" lengthAdjust="spacing" textLength="169" x="378.25" y="65.7793">AbstractionStarExtractor</text><line style="stroke:#181818;stroke-width:0.5;" x1="211.5" x2="681.5" y1="76.4883" y2="76.4883"/><rect fill="none" height="6" style="stroke:#C82930;stroke-width:1.0;" width="6" x="218.5" y="87.2324"/><text fill="#000000" font-family="sans-serif" font-size="14" lengthAdjust="spacing" textLength="351" x="230.5" y="94.0234">AbstractionStarStorageMap: @map&lt;str, u_set&lt;str&gt;</text><line style="stroke:#181818;stroke-width:0.5;" x1="211.5" x2="681.5" y1="100.9766" y2="100.9766"/><ellipse cx="221.5" cy="114.7207" fill="#84BE84" rx="3" ry="3" style="stroke:#038048;stroke-width:1.0;"/><text fill="#000000" font-family="sans-serif" font-size="14" lengthAdjust="spacing" textLength="378" x="230.5" y="118.5117">void extractAbstractions(@ProcessedProgram) override</text><ellipse cx="221.5" cy="131.209" fill="#84BE84" rx="3" ry="3" style="stroke:#038048;stroke-width:1.0;"/><text fill="#000000" font-family="sans-serif" font-size="14" lengthAdjust="spacing" textLength="311" x="230.5" y="135">@map&lt;str, u_set&lt;str&gt;&gt; getStorageStarMap()</text><rect fill="#F24D5C" height="6" style="stroke:#C82930;stroke-width:1.0;" width="6" x="218.5" y="144.6973"/><text fill="#000000" font-family="sans-serif" font-size="14" lengthAdjust="spacing" textLength="202" x="230.5" y="151.4883">void processAbstractionStar()</text><rect fill="#F24D5C" height="6" style="stroke:#C82930;stroke-width:1.0;" width="6" x="218.5" y="161.1855"/><text fill="#000000" font-family="sans-serif" font-size="14" lengthAdjust="spacing" textLength="446" x="230.5" y="167.9766">void processAbstractionStarHelper(str value, u_set&lt;str&gt;&amp; values)</text></g><!--MD5=[bc516da404c61a55abe7606edf3caed8]
class UsesModifiesExtractor--><g id="elem_UsesModifiesExtractor"><rect codeLine="12" fill="#F1F1F1" height="146.9297" id="UsesModifiesExtractor" rx="2.5" ry="2.5" style="stroke:#181818;stroke-width:0.5;" width="439" x="697" y="234.9283"/><ellipse cx="835.75" cy="250.9283" fill="#ADD1B2" rx="11" ry="11" style="stroke:#181818;stroke-width:1.0;"/><path d="M838.2231,257.0713 Q837.6421,257.3702 837.0029,257.5196 Q836.3638,257.669 835.6582,257.669 Q833.1514,257.669 831.8315,256.0171 Q830.5117,254.3653 830.5117,251.2442 Q830.5117,248.1148 831.8315,246.4629 Q833.1514,244.8111 835.6582,244.8111 Q836.3638,244.8111 837.0112,244.9605 Q837.6587,245.1099 838.2231,245.4088 L838.2231,248.1314 Q837.5923,247.5504 836.9988,247.2806 Q836.4053,247.0108 835.7744,247.0108 Q834.4297,247.0108 833.7449,248.0775 Q833.0601,249.1441 833.0601,251.2442 Q833.0601,253.336 833.7449,254.4026 Q834.4297,255.4693 835.7744,255.4693 Q836.4053,255.4693 836.9988,255.1995 Q837.5923,254.9297 838.2231,254.3487 Z " fill="#000000"/><text fill="#000000" font-family="sans-serif" font-size="14" lengthAdjust="spacing" textLength="153" x="856.25" y="256.2193">UsesModifiesExtractor</text><line style="stroke:#181818;stroke-width:0.5;" x1="698" x2="1135" y1="266.9283" y2="266.9283"/><ellipse cx="708" cy="280.6724" fill="#84BE84" rx="3" ry="3" style="stroke:#038048;stroke-width:1.0;"/><text fill="#000000" font-family="sans-serif" font-size="14" lengthAdjust="spacing" textLength="378" x="717" y="284.4634">void extractAbstractions(@ProcessedProgram) override</text><rect fill="none" height="6" style="stroke:#C82930;stroke-width:1.0;" width="6" x="705" y="294.1607"/><text fill="#000000" font-family="sans-serif" font-size="14" lengthAdjust="spacing" textLength="413" x="717" y="300.9517">@map&lt;str, u_set&lt;str&gt;&gt; callsProcedureParentProcedureMap</text><rect fill="none" height="6" style="stroke:#C82930;stroke-width:1.0;" width="6" x="705" y="310.649"/><text fill="#000000" font-family="sans-serif" font-size="14" lengthAdjust="spacing" textLength="331" x="717" y="317.44">@map&lt;str, u_set&lt;str&gt;&gt; procedureCallLinesMap</text><rect fill="none" height="6" style="stroke:#C82930;stroke-width:1.0;" width="6" x="705" y="327.1373"/><text fill="#000000" font-family="sans-serif" font-size="14" lengthAdjust="spacing" textLength="216" x="717" y="333.9283">@CallsExtractor&gt; callsExtractor</text><rect fill="none" height="6" style="stroke:#C82930;stroke-width:1.0;" width="6" x="705" y="343.6255"/><text fill="#000000" font-family="sans-serif" font-size="14" lengthAdjust="spacing" textLength="368" x="717" y="350.4166">@map&lt;str, u_set&lt;str&gt;&gt; ifWhileNestedStatementsMap</text><line style="stroke:#181818;stroke-width:1.0;" x1="698" x2="1135" y1="357.3697" y2="357.3697"/><text fill="#000000" font-family="sans-serif" font-size="14" lengthAdjust="spacing" textLength="221" x="703" y="374.9048">{abstract more extract methods}</text></g><!--MD5=[abf24794aa391c989f89e72f64f37408]
class FollowsExtractor--><g id="elem_FollowsExtractor"><rect codeLine="22" fill="#F1F1F1" height="64.4883" id="FollowsExtractor" rx="2.5" ry="2.5" style="stroke:#181818;stroke-width:0.5;" width="195" x="7" y="276.1483"/><ellipse cx="43.6" cy="292.1483" fill="#ADD1B2" rx="11" ry="11" style="stroke:#181818;stroke-width:1.0;"/><path d="M46.0731,298.2913 Q45.4921,298.5902 44.8529,298.7396 Q44.2138,298.889 43.5082,298.889 Q41.0014,298.889 39.6815,297.2371 Q38.3617,295.5853 38.3617,292.4642 Q38.3617,289.3348 39.6815,287.6829 Q41.0014,286.0311 43.5082,286.0311 Q44.2138,286.0311 44.8612,286.1805 Q45.5087,286.3299 46.0731,286.6288 L46.0731,289.3514 Q45.4423,288.7704 44.8488,288.5006 Q44.2553,288.2308 43.6244,288.2308 Q42.2797,288.2308 41.5949,289.2975 Q40.9101,290.3641 40.9101,292.4642 Q40.9101,294.556 41.5949,295.6226 Q42.2797,296.6893 43.6244,296.6893 Q44.2553,296.6893 44.8488,296.4195 Q45.4423,296.1497 46.0731,295.5687 Z " fill="#000000"/><text fill="#000000" font-family="sans-serif" font-size="14" lengthAdjust="spacing" textLength="115" x="62.4" y="297.4393">FollowsExtractor</text><line style="stroke:#181818;stroke-width:0.5;" x1="8" x2="201" y1="308.1483" y2="308.1483"/><text fill="#000000" font-family="sans-serif" font-size="14" lengthAdjust="spacing" textLength="183" x="13" y="325.6834">{override extract methods}</text><line style="stroke:#181818;stroke-width:0.5;" x1="8" x2="201" y1="332.6366" y2="332.6366"/></g><!--MD5=[e0d3c13b52baed0d5d7d51821c15ad70]
class ParentsExtractor--><g id="elem_ParentsExtractor"><rect codeLine="25" fill="#F1F1F1" height="64.4883" id="ParentsExtractor" rx="2.5" ry="2.5" style="stroke:#181818;stroke-width:0.5;" width="195" x="237" y="276.1483"/><ellipse cx="274.05" cy="292.1483" fill="#ADD1B2" rx="11" ry="11" style="stroke:#181818;stroke-width:1.0;"/><path d="M276.5231,298.2913 Q275.9421,298.5902 275.3029,298.7396 Q274.6638,298.889 273.9582,298.889 Q271.4514,298.889 270.1315,297.2371 Q268.8117,295.5853 268.8117,292.4642 Q268.8117,289.3348 270.1315,287.6829 Q271.4514,286.0311 273.9582,286.0311 Q274.6638,286.0311 275.3112,286.1805 Q275.9587,286.3299 276.5231,286.6288 L276.5231,289.3514 Q275.8923,288.7704 275.2988,288.5006 Q274.7053,288.2308 274.0744,288.2308 Q272.7297,288.2308 272.0449,289.2975 Q271.3601,290.3641 271.3601,292.4642 Q271.3601,294.556 272.0449,295.6226 Q272.7297,296.6893 274.0744,296.6893 Q274.7053,296.6893 275.2988,296.4195 Q275.8923,296.1497 276.5231,295.5687 Z " fill="#000000"/><text fill="#000000" font-family="sans-serif" font-size="14" lengthAdjust="spacing" textLength="114" x="292.95" y="297.4393">ParentsExtractor</text><line style="stroke:#181818;stroke-width:0.5;" x1="238" x2="431" y1="308.1483" y2="308.1483"/><text fill="#000000" font-family="sans-serif" font-size="14" lengthAdjust="spacing" textLength="183" x="243" y="325.6834">{override extract methods}</text><line style="stroke:#181818;stroke-width:0.5;" x1="238" x2="431" y1="332.6366" y2="332.6366"/></g><!--MD5=[855ae238cf4ae1555765c57c6bf9f248]
class CallsExtractor--><g id="elem_CallsExtractor"><rect codeLine="28" fill="#F1F1F1" height="64.4883" id="CallsExtractor" rx="2.5" ry="2.5" style="stroke:#181818;stroke-width:0.5;" width="195" x="467" y="276.1483"/><ellipse cx="512.25" cy="292.1483" fill="#ADD1B2" rx="11" ry="11" style="stroke:#181818;stroke-width:1.0;"/><path d="M514.7231,298.2913 Q514.1421,298.5902 513.5029,298.7396 Q512.8638,298.889 512.1582,298.889 Q509.6514,298.889 508.3315,297.2371 Q507.0117,295.5853 507.0117,292.4642 Q507.0117,289.3348 508.3315,287.6829 Q509.6514,286.0311 512.1582,286.0311 Q512.8638,286.0311 513.5112,286.1805 Q514.1587,286.3299 514.7231,286.6288 L514.7231,289.3514 Q514.0923,288.7704 513.4988,288.5006 Q512.9053,288.2308 512.2744,288.2308 Q510.9297,288.2308 510.2449,289.2975 Q509.5601,290.3641 509.5601,292.4642 Q509.5601,294.556 510.2449,295.6226 Q510.9297,296.6893 512.2744,296.6893 Q512.9053,296.6893 513.4988,296.4195 Q514.0923,296.1497 514.7231,295.5687 Z " fill="#000000"/><text fill="#000000" font-family="sans-serif" font-size="14" lengthAdjust="spacing" textLength="96" x="532.75" y="297.4393">CallsExtractor</text><line style="stroke:#181818;stroke-width:0.5;" x1="468" x2="661" y1="308.1483" y2="308.1483"/><text fill="#000000" font-family="sans-serif" font-size="14" lengthAdjust="spacing" textLength="183" x="473" y="325.6834">{override extract methods}</text><line style="stroke:#181818;stroke-width:0.5;" x1="468" x2="661" y1="332.6366" y2="332.6366"/></g><!--MD5=[3439596fc6ad5619facb2bf0f509b84d]
class NextExtractor--><g id="elem_NextExtractor"><rect codeLine="31" fill="#F1F1F1" height="64.4883" id="NextExtractor" rx="2.5" ry="2.5" style="stroke:#181818;stroke-width:0.5;" width="195" x="1171" y="276.1483"/><ellipse cx="1216.75" cy="292.1483" fill="#ADD1B2" rx="11" ry="11" style="stroke:#181818;stroke-width:1.0;"/><path d="M1219.2231,298.2913 Q1218.6421,298.5902 1218.0029,298.7396 Q1217.3638,298.889 1216.6582,298.889 Q1214.1514,298.889 1212.8315,297.2371 Q1211.5117,295.5853 1211.5117,292.4642 Q1211.5117,289.3348 1212.8315,287.6829 Q1214.1514,286.0311 1216.6582,286.0311 Q1217.3638,286.0311 1218.0112,286.1805 Q1218.6587,286.3299 1219.2231,286.6288 L1219.2231,289.3514 Q1218.5923,288.7704 1217.9988,288.5006 Q1217.4053,288.2308 1216.7744,288.2308 Q1215.4297,288.2308 1214.7449,289.2975 Q1214.0601,290.3641 1214.0601,292.4642 Q1214.0601,294.556 1214.7449,295.6226 Q1215.4297,296.6893 1216.7744,296.6893 Q1217.4053,296.6893 1217.9988,296.4195 Q1218.5923,296.1497 1219.2231,295.5687 Z " fill="#000000"/><text fill="#000000" font-family="sans-serif" font-size="14" lengthAdjust="spacing" textLength="95" x="1237.25" y="297.4393">NextExtractor</text><line style="stroke:#181818;stroke-width:0.5;" x1="1172" x2="1365" y1="308.1483" y2="308.1483"/><text fill="#000000" font-family="sans-serif" font-size="14" lengthAdjust="spacing" textLength="183" x="1177" y="325.6834">{override extract methods}</text><line style="stroke:#181818;stroke-width:0.5;" x1="1172" x2="1365" y1="332.6366" y2="332.6366"/></g><!--MD5=[eda98e6052f4cc125c51eb3a5a40aad0]
class UsesExtractor--><g id="elem_UsesExtractor"><rect codeLine="34" fill="#F1F1F1" height="64.4883" id="UsesExtractor" rx="2.5" ry="2.5" style="stroke:#181818;stroke-width:0.5;" width="195" x="704" y="441.8583"/><ellipse cx="749.75" cy="457.8583" fill="#ADD1B2" rx="11" ry="11" style="stroke:#181818;stroke-width:1.0;"/><path d="M752.2231,464.0013 Q751.6421,464.3002 751.0029,464.4496 Q750.3638,464.599 749.6582,464.599 Q747.1514,464.599 745.8315,462.9471 Q744.5117,461.2953 744.5117,458.1742 Q744.5117,455.0448 745.8315,453.3929 Q747.1514,451.7411 749.6582,451.7411 Q750.3638,451.7411 751.0112,451.8905 Q751.6587,452.0399 752.2231,452.3388 L752.2231,455.0614 Q751.5923,454.4804 750.9988,454.2106 Q750.4053,453.9408 749.7744,453.9408 Q748.4297,453.9408 747.7449,455.0075 Q747.0601,456.0741 747.0601,458.1742 Q747.0601,460.266 747.7449,461.3326 Q748.4297,462.3993 749.7744,462.3993 Q750.4053,462.3993 750.9988,462.1295 Q751.5923,461.8597 752.2231,461.2787 Z " fill="#000000"/><text fill="#000000" font-family="sans-serif" font-size="14" lengthAdjust="spacing" textLength="95" x="770.25" y="463.1493">UsesExtractor</text><line style="stroke:#181818;stroke-width:0.5;" x1="705" x2="898" y1="473.8583" y2="473.8583"/><text fill="#000000" font-family="sans-serif" font-size="14" lengthAdjust="spacing" textLength="183" x="710" y="491.3934">{override extract methods}</text><line style="stroke:#181818;stroke-width:0.5;" x1="705" x2="898" y1="498.3466" y2="498.3466"/></g><!--MD5=[c2a35afde246e4238df75720c94aa25d]
class ModifiesExtractor--><g id="elem_ModifiesExtractor"><rect codeLine="37" fill="#F1F1F1" height="64.4883" id="ModifiesExtractor" rx="2.5" ry="2.5" style="stroke:#181818;stroke-width:0.5;" width="195" x="934" y="441.8583"/><ellipse cx="967.9" cy="457.8583" fill="#ADD1B2" rx="11" ry="11" style="stroke:#181818;stroke-width:1.0;"/><path d="M970.3731,464.0013 Q969.7921,464.3002 969.1529,464.4496 Q968.5138,464.599 967.8082,464.599 Q965.3014,464.599 963.9815,462.9471 Q962.6617,461.2953 962.6617,458.1742 Q962.6617,455.0448 963.9815,453.3929 Q965.3014,451.7411 967.8082,451.7411 Q968.5138,451.7411 969.1612,451.8905 Q969.8087,452.0399 970.3731,452.3388 L970.3731,455.0614 Q969.7423,454.4804 969.1488,454.2106 Q968.5553,453.9408 967.9244,453.9408 Q966.5797,453.9408 965.8949,455.0075 Q965.2101,456.0741 965.2101,458.1742 Q965.2101,460.266 965.8949,461.3326 Q966.5797,462.3993 967.9244,462.3993 Q968.5553,462.3993 969.1488,462.1295 Q969.7423,461.8597 970.3731,461.2787 Z " fill="#000000"/><text fill="#000000" font-family="sans-serif" font-size="14" lengthAdjust="spacing" textLength="121" x="986.1" y="463.1493">ModifiesExtractor</text><line style="stroke:#181818;stroke-width:0.5;" x1="935" x2="1128" y1="473.8583" y2="473.8583"/><text fill="#000000" font-family="sans-serif" font-size="14" lengthAdjust="spacing" textLength="183" x="940" y="491.3934">{override extract methods}</text><line style="stroke:#181818;stroke-width:0.5;" x1="935" x2="1128" y1="498.3466" y2="498.3466"/></g><!--MD5=[b6125f87df00017cab08c65c22e043a5]
class AbstractionExtractor--><g id="elem_AbstractionExtractor"><rect fill="#F1F1F1" height="48" id="AbstractionExtractor" rx="2.5" ry="2.5" style="stroke:#181818;stroke-width:0.5;" width="174" x="829.5" y="85.7083"/><ellipse cx="844.5" cy="101.7083" fill="#ADD1B2" rx="11" ry="11" style="stroke:#181818;stroke-width:1.0;"/><path d="M846.9731,107.8513 Q846.3921,108.1502 845.7529,108.2996 Q845.1138,108.449 844.4082,108.449 Q841.9014,108.449 840.5815,106.7971 Q839.2617,105.1453 839.2617,102.0242 Q839.2617,98.8948 840.5815,97.2429 Q841.9014,95.5911 844.4082,95.5911 Q845.1138,95.5911 845.7612,95.7405 Q846.4087,95.8899 846.9731,96.1888 L846.9731,98.9114 Q846.3423,98.3304 845.7488,98.0606 Q845.1553,97.7908 844.5244,97.7908 Q843.1797,97.7908 842.4949,98.8575 Q841.8101,99.9241 841.8101,102.0242 Q841.8101,104.116 842.4949,105.1826 Q843.1797,106.2493 844.5244,106.2493 Q845.1553,106.2493 845.7488,105.9795 Q846.3423,105.7097 846.9731,105.1287 Z " fill="#000000"/><text fill="#000000" font-family="sans-serif" font-size="14" lengthAdjust="spacing" textLength="142" x="858.5" y="106.9993">AbstractionExtractor</text><line style="stroke:#181818;stroke-width:0.5;" x1="830.5" x2="1002.5" y1="117.7083" y2="117.7083"/><line style="stroke:#181818;stroke-width:0.5;" x1="830.5" x2="1002.5" y1="125.7083" y2="125.7083"/></g><!--MD5=[47b444385ab8957b4aaf2817e5a0d714]
link AbstractionStarExtractor to AbstractionExtractor--><g id="link_AbstractionStarExtractor_AbstractionExtractor"><path codeLine="41" d="M682.88,109.7083 C724.74,109.7083 766.6,109.7083 808.46,109.7083 " fill="none" id="AbstractionStarExtractor-to-AbstractionExtractor" style="stroke:#181818;stroke-width:1.0;"/><polygon fill="none" points="808.35,102.7083,828.35,109.7083,808.35,116.7083,808.35,102.7083" style="stroke:#181818;stroke-width:1.0;"/></g><!--MD5=[a404aef573e9fa959e64aa80e57f22f2]
reverse link AbstractionExtractor to UsesModifiesExtractor--><g id="link_AbstractionExtractor_UsesModifiesExtractor"><path codeLine="42" d="M916.5,154.8283 C916.5,178.3183 916.5,207.8183 916.5,234.5983 " fill="none" id="AbstractionExtractor-backto-UsesModifiesExtractor" style="stroke:#181818;stroke-width:1.0;"/><polygon fill="none" points="909.5,155.0483,916.5,135.0483,923.5,155.0483,909.5,155.0483" style="stroke:#181818;stroke-width:1.0;"/></g><!--MD5=[cb144a820e096d41befea80588f4505f]
reverse link AbstractionExtractor to NextExtractor--><g id="link_AbstractionExtractor_NextExtractor"><path codeLine="43" d="M982.58,143.5683 C1030.55,167.8483 1096.71,202.2283 1153.5,234.9283 C1175.69,247.7083 1199.73,262.6683 1220.06,275.6783 " fill="none" id="AbstractionExtractor-backto-NextExtractor" style="stroke:#181818;stroke-width:1.0;"/><polygon fill="none" points="979.58,149.3883,964.86,134.1383,985.87,136.8883,979.58,149.3883" style="stroke:#181818;stroke-width:1.0;"/></g><!--MD5=[b76fbb8bf812035c16a1957c94342f4f]
reverse link AbstractionStarExtractor to FollowsExtractor--><g id="link_AbstractionStarExtractor_FollowsExtractor"><path codeLine="44" d="M306.63,185.4883 C277.64,201.4783 247.43,218.5083 219.5,234.9283 C197.53,247.8483 173.63,262.7583 153.34,275.6883 " fill="none" id="AbstractionStarExtractor-backto-FollowsExtractor" style="stroke:#181818;stroke-width:1.0;"/><polygon fill="none" points="303.07,178.9083,323.97,175.4183,309.81,191.1783,303.07,178.9083" style="stroke:#181818;stroke-width:1.0;"/></g><!--MD5=[1c2b3cbe4d35af0a97c3f5949c6e6872]
reverse link AbstractionStarExtractor to ParentsExtractor--><g id="link_AbstractionStarExtractor_ParentsExtractor"><path codeLine="45" d="M399.29,193.6083 C382.76,222.6483 365.17,253.5283 352.5,275.7883 " fill="none" id="AbstractionStarExtractor-backto-ParentsExtractor" style="stroke:#181818;stroke-width:1.0;"/><polygon fill="none" points="393.69,190.2983,409.67,176.3883,405.86,197.2283,393.69,190.2983" style="stroke:#181818;stroke-width:1.0;"/></g><!--MD5=[7551c91e4d0ff455a154649691f0fb8f]
reverse link AbstractionStarExtractor to CallsExtractor--><g id="link_AbstractionStarExtractor_CallsExtractor"><path codeLine="46" d="M495.99,193.1983 C513.48,222.3583 532.12,253.4283 545.54,275.7883 " fill="none" id="AbstractionStarExtractor-backto-CallsExtractor" style="stroke:#181818;stroke-width:1.0;"/><polygon fill="none" points="489.59,197.1383,485.3,176.3883,501.59,189.9383,489.59,197.1383" style="stroke:#181818;stroke-width:1.0;"/></g><!--MD5=[b7c827a86f31f9d398a8d31a6151aaa0]
reverse link UsesModifiesExtractor to UsesExtractor--><g id="link_UsesModifiesExtractor_UsesExtractor"><path codeLine="47" d="M853.34,399.3083 C842.69,414.4683 832.3,429.2583 823.66,441.5583 " fill="none" id="UsesModifiesExtractor-backto-UsesExtractor" style="stroke:#181818;stroke-width:1.0;"/><polygon fill="none" points="848.17,395.4983,865.39,383.1583,859.62,403.5383,848.17,395.4983" style="stroke:#181818;stroke-width:1.0;"/></g><!--MD5=[061c56cd1512b9ab4db1c475f1bbb8b5]
reverse link UsesModifiesExtractor to ModifiesExtractor--><g id="link_UsesModifiesExtractor_ModifiesExtractor"><path codeLine="48" d="M979.66,399.3083 C990.31,414.4683 1000.7,429.2583 1009.34,441.5583 " fill="none" id="UsesModifiesExtractor-backto-ModifiesExtractor" style="stroke:#181818;stroke-width:1.0;"/><polygon fill="none" points="973.38,403.5383,967.61,383.1583,984.83,395.4983,973.38,403.5383" style="stroke:#181818;stroke-width:1.0;"/></g><!--MD5=[c70be1bc106a61826a17f42cfbc64c72]
@startuml

title AbstractionExtractors Overview

Class AbstractionStarExtractor {
    +void extractAbstractions(@ProcessedProgram) override
    +@map<str, u_set<str>> getStorageStarMap()
    -void processAbstractionStar()
    -void processAbstractionStarHelper(str value, u_set<str>& values)
    -AbstractionStarStorageMap: @map<str, u_set<str>
} 

Class UsesModifiesExtractor {
    +void extractAbstractions(@ProcessedProgram) override
    -@map<str, u_set<str>> callsProcedureParentProcedureMap
    -@map<str, u_set<str>> procedureCallLinesMap
    -@CallsExtractor> callsExtractor
    -@map<str, u_set<str>> ifWhileNestedStatementsMap
    - - -
    {abstract more extract methods}
} 

Class FollowsExtractor {
    {override extract methods}
}
Class ParentsExtractor {
    {override extract methods}
}
Class CallsExtractor {
    {override extract methods}
}
Class NextExtractor {
    {override extract methods}
}
Class UsesExtractor {
    {override extract methods}
}
Class ModifiesExtractor {
    {override extract methods}
}

AbstractionExtractor <|-left- AbstractionStarExtractor
AbstractionExtractor <|- - UsesModifiesExtractor
AbstractionExtractor <|- - NextExtractor
AbstractionStarExtractor <|- - FollowsExtractor
AbstractionStarExtractor <|- - ParentsExtractor
AbstractionStarExtractor <|- - CallsExtractor
UsesModifiesExtractor <|- - UsesExtractor
UsesModifiesExtractor <|- - ModifiesExtractor

@enduml

PlantUML version 1.2022.7(Tue Aug 23 01:01:30 SGT 2022)
(GPL source distribution)
Java Runtime: OpenJDK Runtime Environment
JVM: OpenJDK 64-Bit Server VM
Default Encoding: UTF-8
Language: en
Country: GB
--></g></svg>