<?xml version="1.0" encoding="UTF-8" standalone="no"?><svg xmlns="http://www.w3.org/2000/svg" xmlns:xlink="http://www.w3.org/1999/xlink" contentStyleType="text/css" height="278px" preserveAspectRatio="none" style="width:845px;height:278px;background:#FFFFFF;" version="1.1" viewBox="0 0 845 278" width="845px" zoomAndPan="magnify"><defs/><g><!--MD5=[dfab0f8f714e39ef928c1b25b3c10994]
class ArithmeticOpToken--><g id="elem_ArithmeticOpToken"><rect fill="#F1F1F1" height="48" id="ArithmeticOpToken" rx="2.5" ry="2.5" style="stroke:#181818;stroke-width:0.5;" width="166" x="326.5" y="115"/><ellipse cx="341.5" cy="131" fill="#ADD1B2" rx="11" ry="11" style="stroke:#181818;stroke-width:1.0;"/><path d="M343.9731,137.1431 Q343.3921,137.4419 342.7529,137.5913 Q342.1138,137.7407 341.4082,137.7407 Q338.9014,137.7407 337.5815,136.0889 Q336.2617,134.437 336.2617,131.3159 Q336.2617,128.1865 337.5815,126.5347 Q338.9014,124.8828 341.4082,124.8828 Q342.1138,124.8828 342.7612,125.0322 Q343.4087,125.1816 343.9731,125.4805 L343.9731,128.2031 Q343.3423,127.6221 342.7488,127.3523 Q342.1553,127.0825 341.5244,127.0825 Q340.1797,127.0825 339.4949,128.1492 Q338.8101,129.2158 338.8101,131.3159 Q338.8101,133.4077 339.4949,134.4744 Q340.1797,135.541 341.5244,135.541 Q342.1553,135.541 342.7488,135.2712 Q343.3423,135.0015 343.9731,134.4204 Z " fill="#000000"/><text fill="#000000" font-family="sans-serif" font-size="14" lengthAdjust="spacing" textLength="134" x="355.5" y="136.291">ArithmeticOpToken</text><line style="stroke:#181818;stroke-width:0.5;" x1="327.5" x2="491.5" y1="147" y2="147"/><line style="stroke:#181818;stroke-width:0.5;" x1="327.5" x2="491.5" y1="155" y2="155"/></g><!--MD5=[5022ceec50617c0e742021acc50548cd]
class OperatorToken--><g id="elem_OperatorToken"><rect fill="#F1F1F1" height="48" id="OperatorToken" rx="2.5" ry="2.5" style="stroke:#181818;stroke-width:0.5;" width="137" x="341" y="7"/><ellipse cx="356" cy="23" fill="#ADD1B2" rx="11" ry="11" style="stroke:#181818;stroke-width:1.0;"/><path d="M358.4731,29.1431 Q357.8921,29.4419 357.2529,29.5913 Q356.6138,29.7407 355.9082,29.7407 Q353.4014,29.7407 352.0815,28.0889 Q350.7617,26.437 350.7617,23.3159 Q350.7617,20.1865 352.0815,18.5347 Q353.4014,16.8828 355.9082,16.8828 Q356.6138,16.8828 357.2612,17.0322 Q357.9087,17.1816 358.4731,17.4805 L358.4731,20.2031 Q357.8423,19.6221 357.2488,19.3523 Q356.6553,19.0825 356.0244,19.0825 Q354.6797,19.0825 353.9949,20.1492 Q353.3101,21.2158 353.3101,23.3159 Q353.3101,25.4077 353.9949,26.4744 Q354.6797,27.541 356.0244,27.541 Q356.6553,27.541 357.2488,27.2712 Q357.8423,27.0015 358.4731,26.4204 Z " fill="#000000"/><text fill="#000000" font-family="sans-serif" font-size="14" lengthAdjust="spacing" textLength="105" x="370" y="28.291">OperatorToken</text><line style="stroke:#181818;stroke-width:0.5;" x1="342" x2="477" y1="39" y2="39"/><line style="stroke:#181818;stroke-width:0.5;" x1="342" x2="477" y1="47" y2="47"/></g><!--MD5=[7decbe4893c631510871ef7fb8f56125]
class PlusOpToken--><g id="elem_PlusOpToken"><rect fill="#F1F1F1" height="48" id="PlusOpToken" rx="2.5" ry="2.5" style="stroke:#181818;stroke-width:0.5;" width="123" x="7" y="223"/><ellipse cx="22" cy="239" fill="#ADD1B2" rx="11" ry="11" style="stroke:#181818;stroke-width:1.0;"/><path d="M24.4731,245.1431 Q23.8921,245.4419 23.2529,245.5913 Q22.6138,245.7407 21.9082,245.7407 Q19.4014,245.7407 18.0815,244.0889 Q16.7617,242.437 16.7617,239.3159 Q16.7617,236.1865 18.0815,234.5347 Q19.4014,232.8828 21.9082,232.8828 Q22.6138,232.8828 23.2612,233.0322 Q23.9087,233.1816 24.4731,233.4805 L24.4731,236.2031 Q23.8423,235.6221 23.2488,235.3523 Q22.6553,235.0825 22.0244,235.0825 Q20.6797,235.0825 19.9949,236.1492 Q19.3101,237.2158 19.3101,239.3159 Q19.3101,241.4077 19.9949,242.4744 Q20.6797,243.541 22.0244,243.541 Q22.6553,243.541 23.2488,243.2712 Q23.8423,243.0015 24.4731,242.4204 Z " fill="#000000"/><text fill="#000000" font-family="sans-serif" font-size="14" lengthAdjust="spacing" textLength="91" x="36" y="244.291">PlusOpToken</text><line style="stroke:#181818;stroke-width:0.5;" x1="8" x2="129" y1="255" y2="255"/><line style="stroke:#181818;stroke-width:0.5;" x1="8" x2="129" y1="263" y2="263"/></g><!--MD5=[aeaaccaf87fb76de622ebba2b824f56c]
class MinusOpToken--><g id="elem_MinusOpToken"><rect fill="#F1F1F1" height="48" id="MinusOpToken" rx="2.5" ry="2.5" style="stroke:#181818;stroke-width:0.5;" width="136" x="164.5" y="223"/><ellipse cx="179.5" cy="239" fill="#ADD1B2" rx="11" ry="11" style="stroke:#181818;stroke-width:1.0;"/><path d="M181.9731,245.1431 Q181.3921,245.4419 180.7529,245.5913 Q180.1138,245.7407 179.4082,245.7407 Q176.9014,245.7407 175.5815,244.0889 Q174.2617,242.437 174.2617,239.3159 Q174.2617,236.1865 175.5815,234.5347 Q176.9014,232.8828 179.4082,232.8828 Q180.1138,232.8828 180.7612,233.0322 Q181.4087,233.1816 181.9731,233.4805 L181.9731,236.2031 Q181.3423,235.6221 180.7488,235.3523 Q180.1553,235.0825 179.5244,235.0825 Q178.1797,235.0825 177.4949,236.1492 Q176.8101,237.2158 176.8101,239.3159 Q176.8101,241.4077 177.4949,242.4744 Q178.1797,243.541 179.5244,243.541 Q180.1553,243.541 180.7488,243.2712 Q181.3423,243.0015 181.9731,242.4204 Z " fill="#000000"/><text fill="#000000" font-family="sans-serif" font-size="14" lengthAdjust="spacing" textLength="104" x="193.5" y="244.291">MinusOpToken</text><line style="stroke:#181818;stroke-width:0.5;" x1="165.5" x2="299.5" y1="255" y2="255"/><line style="stroke:#181818;stroke-width:0.5;" x1="165.5" x2="299.5" y1="263" y2="263"/></g><!--MD5=[6485f5808d8e09ecf4e9c28084280ea3]
class MultiplyOpToken--><g id="elem_MultiplyOpToken"><rect fill="#F1F1F1" height="48" id="MultiplyOpToken" rx="2.5" ry="2.5" style="stroke:#181818;stroke-width:0.5;" width="149" x="335" y="223"/><ellipse cx="350" cy="239" fill="#ADD1B2" rx="11" ry="11" style="stroke:#181818;stroke-width:1.0;"/><path d="M352.4731,245.1431 Q351.8921,245.4419 351.2529,245.5913 Q350.6138,245.7407 349.9082,245.7407 Q347.4014,245.7407 346.0815,244.0889 Q344.7617,242.437 344.7617,239.3159 Q344.7617,236.1865 346.0815,234.5347 Q347.4014,232.8828 349.9082,232.8828 Q350.6138,232.8828 351.2612,233.0322 Q351.9087,233.1816 352.4731,233.4805 L352.4731,236.2031 Q351.8423,235.6221 351.2488,235.3523 Q350.6553,235.0825 350.0244,235.0825 Q348.6797,235.0825 347.9949,236.1492 Q347.3101,237.2158 347.3101,239.3159 Q347.3101,241.4077 347.9949,242.4744 Q348.6797,243.541 350.0244,243.541 Q350.6553,243.541 351.2488,243.2712 Q351.8423,243.0015 352.4731,242.4204 Z " fill="#000000"/><text fill="#000000" font-family="sans-serif" font-size="14" lengthAdjust="spacing" textLength="117" x="364" y="244.291">MultiplyOpToken</text><line style="stroke:#181818;stroke-width:0.5;" x1="336" x2="483" y1="255" y2="255"/><line style="stroke:#181818;stroke-width:0.5;" x1="336" x2="483" y1="263" y2="263"/></g><!--MD5=[897f41802c3530b2e7e5a0ffb948a42b]
class DivideOpToken--><g id="elem_DivideOpToken"><rect fill="#F1F1F1" height="48" id="DivideOpToken" rx="2.5" ry="2.5" style="stroke:#181818;stroke-width:0.5;" width="137" x="519" y="223"/><ellipse cx="534" cy="239" fill="#ADD1B2" rx="11" ry="11" style="stroke:#181818;stroke-width:1.0;"/><path d="M536.4731,245.1431 Q535.8921,245.4419 535.2529,245.5913 Q534.6138,245.7407 533.9082,245.7407 Q531.4014,245.7407 530.0815,244.0889 Q528.7617,242.437 528.7617,239.3159 Q528.7617,236.1865 530.0815,234.5347 Q531.4014,232.8828 533.9082,232.8828 Q534.6138,232.8828 535.2612,233.0322 Q535.9087,233.1816 536.4731,233.4805 L536.4731,236.2031 Q535.8423,235.6221 535.2488,235.3523 Q534.6553,235.0825 534.0244,235.0825 Q532.6797,235.0825 531.9949,236.1492 Q531.3101,237.2158 531.3101,239.3159 Q531.3101,241.4077 531.9949,242.4744 Q532.6797,243.541 534.0244,243.541 Q534.6553,243.541 535.2488,243.2712 Q535.8423,243.0015 536.4731,242.4204 Z " fill="#000000"/><text fill="#000000" font-family="sans-serif" font-size="14" lengthAdjust="spacing" textLength="105" x="548" y="244.291">DivideOpToken</text><line style="stroke:#181818;stroke-width:0.5;" x1="520" x2="655" y1="255" y2="255"/><line style="stroke:#181818;stroke-width:0.5;" x1="520" x2="655" y1="263" y2="263"/></g><!--MD5=[77f67f2d69410f00a1a141beeaf9b19b]
class ModuloOpToken--><g id="elem_ModuloOpToken"><rect fill="#F1F1F1" height="48" id="ModuloOpToken" rx="2.5" ry="2.5" style="stroke:#181818;stroke-width:0.5;" width="147" x="691" y="223"/><ellipse cx="706" cy="239" fill="#ADD1B2" rx="11" ry="11" style="stroke:#181818;stroke-width:1.0;"/><path d="M708.4731,245.1431 Q707.8921,245.4419 707.2529,245.5913 Q706.6138,245.7407 705.9082,245.7407 Q703.4014,245.7407 702.0815,244.0889 Q700.7617,242.437 700.7617,239.3159 Q700.7617,236.1865 702.0815,234.5347 Q703.4014,232.8828 705.9082,232.8828 Q706.6138,232.8828 707.2612,233.0322 Q707.9087,233.1816 708.4731,233.4805 L708.4731,236.2031 Q707.8423,235.6221 707.2488,235.3523 Q706.6553,235.0825 706.0244,235.0825 Q704.6797,235.0825 703.9949,236.1492 Q703.3101,237.2158 703.3101,239.3159 Q703.3101,241.4077 703.9949,242.4744 Q704.6797,243.541 706.0244,243.541 Q706.6553,243.541 707.2488,243.2712 Q707.8423,243.0015 708.4731,242.4204 Z " fill="#000000"/><text fill="#000000" font-family="sans-serif" font-size="14" lengthAdjust="spacing" textLength="115" x="720" y="244.291">ModuloOpToken</text><line style="stroke:#181818;stroke-width:0.5;" x1="692" x2="837" y1="255" y2="255"/><line style="stroke:#181818;stroke-width:0.5;" x1="692" x2="837" y1="263" y2="263"/></g><!--MD5=[798a51fb1fb63eded086538107ca1f00]
reverse link OperatorToken to ArithmeticOpToken--><g id="link_OperatorToken_ArithmeticOpToken"><path codeLine="2" d="M409.5,76.24 C409.5,89.48 409.5,103.48 409.5,114.79 " fill="none" id="OperatorToken-backto-ArithmeticOpToken" style="stroke:#181818;stroke-width:1.0;"/><polygon fill="none" points="402.5,76.26,409.5,56.26,416.5,76.26,402.5,76.26" style="stroke:#181818;stroke-width:1.0;"/></g><!--MD5=[fa2bdb9a972ddd25286d5bbd3b9e4edf]
reverse link ArithmeticOpToken to PlusOpToken--><g id="link_ArithmeticOpToken_PlusOpToken"><path codeLine="3" d="M314.52,169.52 C255.69,187.81 181.82,210.77 130.46,226.74 " fill="none" id="ArithmeticOpToken-backto-PlusOpToken" style="stroke:#181818;stroke-width:1.0;"/><polygon fill="none" points="312.07,162.65,333.24,163.39,316.22,176.01,312.07,162.65" style="stroke:#181818;stroke-width:1.0;"/></g><!--MD5=[91ba3c275a2b01ec24de49018a000f47]
reverse link ArithmeticOpToken to MinusOpToken--><g id="link_ArithmeticOpToken_MinusOpToken"><path codeLine="4" d="M352.73,174 C326.24,189.86 295.38,208.34 271.56,222.61 " fill="none" id="ArithmeticOpToken-backto-MinusOpToken" style="stroke:#181818;stroke-width:1.0;"/><polygon fill="none" points="348.9,167.53,369.66,163.26,356.09,179.54,348.9,167.53" style="stroke:#181818;stroke-width:1.0;"/></g><!--MD5=[fc64cfee8699b47aed685655c4560ca0]
reverse link ArithmeticOpToken to MultiplyOpToken--><g id="link_ArithmeticOpToken_MultiplyOpToken"><path codeLine="5" d="M409.5,184.24 C409.5,197.48 409.5,211.48 409.5,222.79 " fill="none" id="ArithmeticOpToken-backto-MultiplyOpToken" style="stroke:#181818;stroke-width:1.0;"/><polygon fill="none" points="402.5,184.26,409.5,164.26,416.5,184.26,402.5,184.26" style="stroke:#181818;stroke-width:1.0;"/></g><!--MD5=[a45728f72b7c065fb3c80f0ce88a6d02]
reverse link ArithmeticOpToken to DivideOpToken--><g id="link_ArithmeticOpToken_DivideOpToken"><path codeLine="6" d="M466.59,174 C493.23,189.86 524.26,208.34 548.22,222.61 " fill="none" id="ArithmeticOpToken-backto-DivideOpToken" style="stroke:#181818;stroke-width:1.0;"/><polygon fill="none" points="463.17,179.51,449.56,163.26,470.33,167.48,463.17,179.51" style="stroke:#181818;stroke-width:1.0;"/></g><!--MD5=[b2e107547976a2f7aebacb3c5a5e659b]
reverse link ArithmeticOpToken to ModuloOpToken--><g id="link_ArithmeticOpToken_ModuloOpToken"><path codeLine="7" d="M507.67,169.31 C565.53,186.59 637.56,208.1 690.6,223.93 " fill="none" id="ArithmeticOpToken-backto-ModuloOpToken" style="stroke:#181818;stroke-width:1.0;"/><polygon fill="none" points="506.01,175.82,488.85,163.39,510.01,162.41,506.01,175.82" style="stroke:#181818;stroke-width:1.0;"/></g><!--MD5=[80faf00d14b20167f9d420cd778b2a92]
@startuml

    ArithmeticOpToken -up-|> OperatorToken
    PlusOpToken -up-|> ArithmeticOpToken
    MinusOpToken -up-|> ArithmeticOpToken
    MultiplyOpToken -up-|> ArithmeticOpToken
    DivideOpToken -up-|> ArithmeticOpToken
    ModuloOpToken -up-|> ArithmeticOpToken
@enduml

PlantUML version 1.2022.7(Tue Aug 23 01:01:30 SGT 2022)
(GPL source distribution)
Java Runtime: OpenJDK Runtime Environment
JVM: OpenJDK 64-Bit Server VM
Default Encoding: UTF-8
Language: en
Country: GB
--></g></svg>